<?xml version="1.0" encoding="UTF-8"?>
<svg version="1.1" xmlns="http://www.w3.org/2000/svg" width="1280" height="534">
<path d="M0 0 C422.4 0 844.8 0 1280 0 C1280 176.22 1280 352.44 1280 534 C857.6 534 435.2 534 0 534 C0 357.78 0 181.56 0 0 Z " fill="#FCFDFE" transform="translate(0,0)"/>
<path d="M0 0 C5.80239614 -0.04934656 11.60467081 -0.08569402 17.40722656 -0.10986328 C19.38218309 -0.11993627 21.35712466 -0.13359521 23.33203125 -0.15087891 C26.16670418 -0.17507039 29.00118038 -0.18646991 31.8359375 -0.1953125 C32.72243988 -0.20563507 33.60894226 -0.21595764 34.52230835 -0.22659302 C36.68285952 -0.2269907 38.84293718 -0.12272534 41 0 C41.99 0.99 41.99 0.99 43 2 C43.66 1.67 44.32 1.34 45 1 C45.84026396 2.76755526 46.67198722 4.53917263 47.5 6.3125 C47.9640625 7.29863281 48.428125 8.28476563 48.90625 9.30078125 C50 12 50 12 50 15 C49.34 15 48.68 15 48 15 C48.99 15.99 48.99 15.99 50 17 C50.66 17 51.32 17 52 17 C53.65531064 20.57404459 55.3093114 24.14869224 56.9621582 27.72387695 C57.79766478 29.53042304 58.63417493 31.33650488 59.47070312 33.14257812 C62.05428209 38.73250353 64.62249966 44.3190255 67 50 C67.33 45.71 67.66 41.42 68 37 C82.19 37 96.38 37 111 37 C107.18643759 28.42933198 107.18643759 28.42933198 103.37182617 19.85913086 C102.89205322 18.78026611 102.41228027 17.70140137 101.91796875 16.58984375 C101.18743286 14.94810181 101.18743286 14.94810181 100.44213867 13.27319336 C99.96623291 12.19303955 99.49032715 11.11288574 99 10 C98.71984039 9.38553009 98.43968079 8.77106018 98.15103149 8.13796997 C96.85583926 5.24371877 96 3.20867522 96 0 C112.17 0 128.34 0 145 0 C149.51660458 9.67843839 153.87263478 19.20868005 157.61523438 29.1796875 C157.97037109 30.05625 158.32550781 30.9328125 158.69140625 31.8359375 C158.99248291 32.61501465 159.29355957 33.3940918 159.60375977 34.19677734 C160.96062892 36.33696557 160.96062892 36.33696557 164.14428711 36.76025391 C165.08667236 36.83937012 166.02905762 36.91848633 167 37 C167.0158313 38.50518188 167.0158313 38.50518188 167.03198242 40.04077148 C167.28748725 49.77054204 169.06472961 57.19945621 173.3125 66.0625 C174.18050715 67.95286138 175.0384983 69.84759728 175.89659119 71.74247742 C176.52698705 73.13274765 177.16042805 74.52164046 177.79664612 75.90925598 C182.13560139 85.3998187 186.15664092 95.02818945 190.2203064 104.6388855 C192.37193167 109.72639982 194.53133577 114.81059834 196.69140625 119.89453125 C197.25483734 121.22420929 197.25483734 121.22420929 197.82965088 122.58074951 C200.16428121 128.07918882 202.55580043 133.54937877 205 139 C207.57361656 136.42638344 208.63602292 133.50546406 210.01953125 130.203125 C210.46151604 129.16484558 210.46151604 129.16484558 210.91242981 128.10559082 C211.88346717 125.82221286 212.84789699 123.53610263 213.8125 121.25 C214.83366333 118.84457111 215.85654293 116.43987675 216.8795166 114.03521729 C217.5749723 112.40015656 218.26987301 110.76485967 218.9642334 109.1293335 C222.14107143 101.65047277 225.37844946 94.19879344 228.625 86.75 C231.98198212 79.04246856 235.29831988 71.32206974 238.5234375 63.55859375 C238.81570221 62.85612518 239.10796692 62.15365662 239.40908813 61.42990112 C240.81367767 58.05170575 242.21213481 54.67119312 243.60009766 51.28613281 C246.09591998 45.26195456 248.65811357 39.43816527 251.96459961 33.81176758 C253.5791611 30.98657049 254.76510844 28.0066925 256 25 C256.72471408 23.3522012 257.45402107 21.70641607 258.1875 20.0625 C258.70376953 18.90427734 258.70376953 18.90427734 259.23046875 17.72265625 C259.48441406 17.15417969 259.73835938 16.58570313 260 16 C260.66 16 261.32 16 262 16 C262.33 13.69 262.66 11.38 263 9 C264.485 8.505 264.485 8.505 266 8 C265.7525 7.4225 265.505 6.845 265.25 6.25 C265 4 265 4 266.38574219 1.88378906 C270.3132652 -0.94631624 273.85621495 -0.49917587 278.578125 -0.390625 C279.5046991 -0.38496521 280.43127319 -0.37930542 281.38592529 -0.37347412 C284.34114562 -0.35110921 287.29514705 -0.30091262 290.25 -0.25 C292.2551908 -0.22993515 294.26040064 -0.21168435 296.265625 -0.1953125 C301.17755194 -0.151244 306.08856942 -0.08221555 311 0 C310.31325589 2.93461773 309.3705799 5.31660411 308 8 C307.53688501 9.30368209 307.10059529 10.61711567 306.6875 11.9375 C305.44150452 15.74401621 304.10134824 19.50239584 302.6875 23.25 C302.32011719 24.22453125 301.95273437 25.1990625 301.57421875 26.203125 C299.74967691 30.76546512 297.61186886 35.1891124 295.54174805 39.64355469 C293.28548363 44.55552985 291.17231553 49.52377524 289.0625 54.5 C282.77183136 69.25668427 276.38734208 83.9724488 270 98.6875 C269.23153244 100.45867187 269.23153244 100.45867187 268.44754028 102.265625 C266.96552749 105.68120716 265.4828928 109.09651857 264 112.51171875 C263.55559067 113.53581345 263.11118134 114.55990814 262.65330505 115.61503601 C262.23146439 116.58600723 261.80962372 117.55697845 261.375 118.55737305 C261.01148438 119.39447311 260.64796875 120.23157318 260.2734375 121.09403992 C258.53128725 125.06959356 256.76285215 129.03358265 255 133 C268.53 133 282.06 133 296 133 C296.33 137.62 296.66 142.24 297 147 C305.66479856 127.78859259 314.32261171 108.57426932 322.875 89.3125 C323.18990387 88.60349548 323.50480774 87.89449097 323.82925415 87.16400146 C327.526738 78.83818883 331.21753035 70.50942327 334.9050293 62.17918396 C336.71881898 58.08300576 338.53448564 53.98766094 340.35040283 49.89242554 C341.23163493 47.90375015 342.11198657 45.91468434 342.99139404 43.92520142 C344.22517984 41.13406968 345.46191383 38.34426064 346.69921875 35.5546875 C347.06006058 34.73633926 347.4209024 33.91799103 347.79267883 33.07484436 C351.45734179 24.82838783 355.43109349 16.78406294 360 9 C360.66 9 361.32 9 362 9 C362.0825 7.88625 362.165 6.7725 362.25 5.625 C363 2 363 2 364.78326416 0.78762817 C367.09519898 -0.03382514 368.77362006 -0.24213815 371.21777344 -0.22705078 C372.4485965 -0.22682419 372.4485965 -0.22682419 373.70428467 -0.22659302 C375.01855438 -0.21110916 375.01855438 -0.21110916 376.359375 -0.1953125 C377.26375305 -0.1924826 378.1681311 -0.18965271 379.09991455 -0.18673706 C381.98341195 -0.17555782 384.86659675 -0.15045733 387.75 -0.125 C389.70702676 -0.11496728 391.66405839 -0.10584194 393.62109375 -0.09765625 C398.41418262 -0.07562585 403.20703834 -0.04111144 408 0 C411 6.625 411 6.625 411 10 C411.57878906 10.721875 412.15757812 11.44375 412.75390625 12.1875 C415.46801042 15.58603044 417.13056632 19.06535777 418.9375 23 C419.51491943 24.23834595 419.51491943 24.23834595 420.10400391 25.50170898 C424.27029924 34.4861523 428.300554 43.5330741 432.33601379 52.57681274 C436.64567216 62.23238287 441.00903126 71.86330252 445.37530518 81.49337769 C451.22531277 94.3975373 457.05237479 107.30804507 462.71923828 120.29394531 C467.21966774 130.57132711 471.866456 140.78213459 476.5 151 C481.94088671 163.00107722 487.37459845 175.00408525 492.6875 187.0625 C493.36425781 188.59487305 493.36425781 188.59487305 494.0546875 190.15820312 C494.45300781 191.06634766 494.85132813 191.97449219 495.26171875 192.91015625 C495.60162842 193.68496338 495.94153809 194.45977051 496.29174805 195.25805664 C497 197 497 197 497 198 C480.83 198 464.66 198 448 198 C442.39 184.47 436.78 170.94 431 157 C404.27 156.67 377.54 156.34 350 156 C350 148.41 350 140.82 350 133 C335.48 133 320.96 133 306 133 C306 147.52 306 162.04 306 177 C313.92 177 321.84 177 330 177 C329.09262391 181.53688047 327.73558574 185.50108963 326 189.75 C325.72671875 190.43449219 325.4534375 191.11898437 325.171875 191.82421875 C323.13600498 196.86399502 323.13600498 196.86399502 322 198 C320.52645652 198.09304018 319.04849409 198.11746265 317.57202148 198.11352539 C316.63112167 198.11344986 315.69022186 198.11337433 314.72080994 198.11329651 C313.69790359 198.10813522 312.67499725 198.10297394 311.62109375 198.09765625 C310.058395 198.09553383 310.058395 198.09553383 308.46412659 198.09336853 C305.12188906 198.0877508 301.77971743 198.0751953 298.4375 198.0625 C296.17773534 198.05748728 293.91796963 198.05292398 291.65820312 198.04882812 C286.10544609 198.03777561 280.55272775 198.02102024 275 198 C277.27058485 191.18824545 280.17157288 184.59966329 283 178 C272.77 177.67 262.54 177.34 252 177 C251.67 165.78 251.34 154.56 251 143 C242.97829418 161.32409271 234.96688781 179.65201595 227 198 C211.49 198 195.98 198 180 198 C177.525 192.225 175.05 186.45 172.5 180.5 C171.22020264 177.51453125 171.22020264 177.51453125 169.91455078 174.46875 C165.71966942 164.68300145 161.52702171 154.89630421 157.33917236 145.10754395 C155.47445623 140.74899148 153.60887135 136.39081099 151.74310684 132.03270721 C150.43996875 128.9886422 149.13742428 125.94432528 147.83569336 122.8996582 C147.33755127 121.7345874 146.83940918 120.5695166 146.32617188 119.36914062 C145.83816101 118.2273938 145.35015015 117.08564697 144.84735107 115.90930176 C143.43672827 112.62052254 142.01307197 109.33760235 140.58886719 106.0546875 C138.91754408 102.18918808 137.32091306 98.30745343 135.79394531 94.3828125 C135.45183014 93.53456909 135.10971497 92.68632568 134.75723267 91.81237793 C134.13442869 90.26456527 133.53587645 88.70665424 132.96810913 87.13781738 C132.1001941 84.82541532 132.1001941 84.82541532 130 82 C127.18348748 81.05982686 125.02180291 81.0297985 122 81 C122.00902344 79.741875 122.01804687 78.48375 122.02734375 77.1875 C121.99915033 75.45830384 121.96909973 73.72913727 121.9375 72 C121.95393555 70.77023438 121.95393555 70.77023438 121.97070312 69.515625 C121.70910691 59.64971051 118.44529275 55.16066914 114 45 C113.67 56.88 113.34 68.76 113 81 C102.44 81 91.88 81 81 81 C82.72283203 84.82658203 82.72283203 84.82658203 84.48046875 88.73046875 C92.21722945 105.91659425 99.95044575 123.1042438 107.65478516 140.30493164 C110.25909233 146.11878398 112.86767475 151.93063248 115.48632812 157.73803711 C119.25307244 166.09272385 123.00092576 174.45585466 126.73239136 182.82635498 C127.5509578 184.66162182 128.37129159 186.49610005 129.19165039 188.33056641 C129.68656982 189.44222168 130.18148926 190.55387695 130.69140625 191.69921875 C131.13685791 192.69783936 131.58230957 193.69645996 132.04125977 194.7253418 C133 197 133 197 133 198 C116.83 198 100.66 198 84 198 C81.56625 192.163125 79.1325 186.32625 76.625 180.3125 C75.47765381 177.56160034 75.47765381 177.56160034 74.30712891 174.75512695 C73.69691173 173.29119021 73.08672116 171.82724238 72.4765625 170.36328125 C72.16291748 169.6115564 71.84927246 168.85983154 71.52612305 168.08532715 C71.22182373 167.35503296 70.91752441 166.62473877 70.60400391 165.87231445 C70.34197174 165.24388138 70.07993958 164.6154483 69.80996704 163.9679718 C68.85679072 161.65204531 67.93011387 159.32528468 67 157 C21.46 156.505 21.46 156.505 -25 156 C-25.99 158.97 -26.98 161.94 -28 165 C-29.01147373 167.6274242 -30.03707129 170.2384958 -31.1015625 172.84375 C-31.5244606 173.88650085 -31.5244606 173.88650085 -31.9559021 174.95031738 C-32.54442235 176.39940333 -33.13432601 177.84792818 -33.72558594 179.29589844 C-34.63363175 181.52115295 -35.53582408 183.74872037 -36.4375 185.9765625 C-37.01267695 187.39076491 -37.58818544 188.80483254 -38.1640625 190.21875 C-38.43384918 190.88531616 -38.70363586 191.55188232 -38.9815979 192.23864746 C-40.88488369 196.88488369 -40.88488369 196.88488369 -42 198 C-43.47354348 198.09304018 -44.95150591 198.11746265 -46.42797852 198.11352539 C-47.36887833 198.11344986 -48.30977814 198.11337433 -49.27919006 198.11329651 C-50.30209641 198.10813522 -51.32500275 198.10297394 -52.37890625 198.09765625 C-53.941605 198.09553383 -53.941605 198.09553383 -55.53587341 198.09336853 C-58.87811094 198.0877508 -62.22028257 198.0751953 -65.5625 198.0625 C-67.82226466 198.05748728 -70.08203037 198.05292398 -72.34179688 198.04882812 C-77.89455391 198.03777561 -83.44727225 198.02102024 -89 198 C-87.4497652 193.19665633 -85.90183321 188.46847624 -83.7578125 183.890625 C-83.33798096 182.98586426 -82.91814941 182.08110352 -82.4855957 181.14892578 C-82.03659912 180.19228027 -81.58760254 179.23563477 -81.125 178.25 C-80.14078819 176.12813206 -79.1577687 174.00571077 -78.17578125 171.8828125 C-77.65967285 170.7680957 -77.14356445 169.65337891 -76.61181641 168.50488281 C-73.80306194 162.39726707 -71.05729523 156.26156287 -68.3125 150.125 C-68.03800018 149.51173859 -67.76350037 148.89847717 -67.48068237 148.26663208 C-62.96883435 138.18589167 -58.4742523 128.09748177 -54 118 C-53.67 118 -53.34 118 -53 118 C-53 129.22 -53 140.44 -53 152 C-36.83 152 -20.66 152 -4 152 C-4 141.77 -4 131.54 -4 121 C14.48 121 32.96 121 52 121 C49.091875 113.966875 46.18375 106.93375 43.1875 99.6875 C33.31921033 75.81938096 33.31921033 75.81938096 29.32421875 65.96875 C29.06281601 65.32444534 28.80141327 64.68014069 28.53208923 64.01631165 C27.36256273 61.13125225 26.19698895 58.24466304 25.03588867 55.35620117 C24.44191284 53.88630737 24.44191284 53.88630737 23.8359375 52.38671875 C23.50126465 51.55358154 23.1665918 50.72044434 22.82177734 49.86206055 C22.14470044 48.02423028 22.14470044 48.02423028 21 47 C20.59273682 48.0108667 20.18547363 49.0217334 19.76586914 50.06323242 C4.84768685 87.07154468 4.84768685 87.07154468 -3 105 C-3.33 104.34 -3.66 103.68 -4 103 C-18.19 103 -32.38 103 -47 103 C-41.70599496 90.52768303 -36.29396389 78.12040714 -30.72549438 65.76834106 C-26.49594839 56.3859767 -22.34455826 46.97328471 -18.33422852 37.49462891 C-16.18505035 32.47752793 -13.82839993 27.70032087 -11.09423828 22.97460938 C-10.05492984 21.09912373 -9.1936707 19.23009011 -8.375 17.25 C-7.12403038 14.29316273 -5.65742543 11.73835506 -4 9 C-3.31246699 7.34183216 -2.64438717 5.67540664 -2 4 C-1.34208745 2.66232541 -0.67675673 1.32824039 0 0 Z " fill="#766D6C" transform="translate(184,135)"/>
<path d="M0 0 C1.29099861 0.00022659 1.29099861 0.00022659 2.608078 0.00045776 C3.99571098 0.01594162 3.99571098 0.01594162 5.41137695 0.03173828 C6.36156204 0.03456818 7.31174713 0.03739807 8.29072571 0.04031372 C11.32716435 0.05151363 14.36330863 0.0766179 17.3996582 0.10205078 C19.45759665 0.11208082 21.51553972 0.12120663 23.57348633 0.12939453 C28.6198238 0.15145236 33.66594108 0.18598096 38.7121582 0.22705078 C40.95029227 5.72352359 43.12389149 11.20594587 44.9621582 16.85205078 C45.29731445 17.87556641 45.6324707 18.89908203 45.9777832 19.95361328 C46.34129883 21.07896484 46.34129883 21.07896484 46.7121582 22.22705078 C47.3721582 22.22705078 48.0321582 22.22705078 48.7121582 22.22705078 C49.34831055 23.69851562 49.34831055 23.69851562 49.99731445 25.19970703 C54.37647225 35.29015285 58.79149322 45.38572082 63.7121582 55.22705078 C64.0421582 53.57705078 64.3721582 51.92705078 64.7121582 50.22705078 C80.8821582 50.22705078 97.0521582 50.22705078 113.7121582 50.22705078 C113.7121582 66.39705078 113.7121582 82.56705078 113.7121582 99.22705078 C103.8121582 99.55705078 93.9121582 99.88705078 83.7121582 100.22705078 C84.93290039 102.92248047 86.15364258 105.61791016 87.41137695 108.39501953 C102.5992865 141.93756886 102.5992865 141.93756886 109.7746582 157.91455078 C110.46724731 159.45308716 110.46724731 159.45308716 111.17382812 161.02270508 C114.47367539 168.38211431 117.69633411 175.77389362 120.90917969 183.17163086 C121.37191032 184.23652992 121.83464096 185.30142899 122.31139374 186.39859772 C123.44521102 189.00798263 124.57879295 191.61746951 125.7121582 194.22705078 C125.71546835 193.24545329 125.7187785 192.2638558 125.72218895 191.25251293 C125.80310345 167.39247838 125.89539438 143.53250865 125.99968529 119.67256451 C126.04985443 108.1341809 126.0962968 96.59580456 126.1340332 85.05737305 C126.16692512 75.00307994 126.20674072 64.94884247 126.25494826 54.8946107 C126.28024115 49.56863022 126.30201415 44.24268677 126.31550217 38.91666222 C126.32829725 33.90739248 126.35032389 28.89824958 126.3795414 23.88904953 C126.3886372 22.04717057 126.39431205 20.20527117 126.39637184 18.3633709 C126.39968028 15.85507286 126.41511886 13.34713756 126.4336853 10.83891296 C126.43175057 10.10448036 126.42981583 9.37004776 126.42782247 8.61335963 C126.46877791 4.93062141 126.61171469 3.37771606 128.7121582 0.22705078 C131.46469889 -0.07005919 133.99266961 -0.17195383 136.74755859 -0.14526367 C137.99450752 -0.15073967 137.99450752 -0.15073967 139.26664734 -0.15632629 C142.03124088 -0.16446727 144.79525391 -0.15077534 147.55981445 -0.13623047 C149.48921203 -0.13571155 151.41861014 -0.13623048 153.3480072 -0.13774109 C157.40770287 -0.13765116 161.46720085 -0.12719337 165.52685547 -0.10913086 C170.68406458 -0.08667011 175.840979 -0.08585595 180.9982233 -0.09264851 C184.99387643 -0.09602582 188.98946478 -0.08928481 192.98510551 -0.07951927 C194.88294572 -0.07571414 196.78079321 -0.0744992 198.67863655 -0.07610512 C214.29912074 -0.07831102 229.37396992 1.11303415 244.7121582 4.22705078 C244.3821582 5.21705078 244.0521582 6.20705078 243.7121582 7.22705078 C244.3515332 6.81455078 244.9909082 6.40205078 245.6496582 5.97705078 C250.42140126 4.80846065 253.46735604 7.08196755 257.7121582 9.22705078 C259.72959564 10.15116729 261.7504539 11.06785219 263.7746582 11.97705078 C265.42066405 12.7266721 267.06656002 13.47653497 268.7121582 14.22705078 C268.7121582 14.88705078 268.7121582 15.54705078 268.7121582 16.22705078 C270.04633789 16.58863281 270.04633789 16.58863281 271.4074707 16.95751953 C281.37327689 20.78599118 288.19118762 32.03441059 292.7121582 41.22705078 C300.51676103 60.63499859 300.99508737 81.84219355 293.5871582 101.47705078 C286.81685477 116.39604277 275.19406432 126.99739406 260.7121582 134.22705078 C260.0521582 134.22705078 259.3921582 134.22705078 258.7121582 134.22705078 C261.51238286 139.30409362 264.57917469 144.02265185 267.9621582 148.72705078 C269.02933829 150.22519777 270.09569949 151.72392831 271.16137695 153.22314453 C272.01675049 154.42559814 272.01675049 154.42559814 272.8894043 155.65234375 C278.89318844 164.13291 284.79094767 172.68874745 290.7121582 181.22705078 C291.30109863 182.07477051 291.89003906 182.92249023 292.49682617 183.79589844 C294.07113071 186.06287867 295.64227691 188.33200609 297.2121582 190.60205078 C297.67501221 191.26793213 298.13786621 191.93381348 298.61474609 192.61987305 C301.7121582 197.1118746 301.7121582 197.1118746 301.7121582 198.22705078 C294.83238345 198.71282722 287.95706329 199.04298 281.06396484 199.27075195 C278.72602309 199.36574041 276.38919391 199.49501046 274.05517578 199.66040039 C255.21602196 200.96090193 255.21602196 200.96090193 249.40863037 196.42974854 C245.39254483 191.97937993 242.59808164 186.98602231 239.95787048 181.6342926 C237.65926044 177.19240798 234.67599699 173.23070861 231.73233032 169.20150757 C229.10716853 165.60166982 227.23182431 162.20239498 225.61450195 158.04345703 C222.99389576 152.09570598 220.60856352 147.38597254 214.7121582 144.22705078 C201.32390194 140.95555718 186.02074569 142.77381715 172.7121582 143.22705078 C172.7121582 161.37705078 172.7121582 179.52705078 172.7121582 198.22705078 C141.6921582 198.22705078 110.6721582 198.22705078 78.7121582 198.22705078 C74.54293805 189.19374045 70.56821512 180.24045881 66.8371582 171.03955078 C66.33958008 169.8271875 65.84200195 168.61482422 65.3293457 167.36572266 C64.86012695 166.21265625 64.3909082 165.05958984 63.9074707 163.87158203 C63.48481934 162.83364502 63.06216797 161.79570801 62.62670898 160.72631836 C61.7121582 158.22705078 61.7121582 158.22705078 61.7121582 156.22705078 C31.3521582 156.55705078 0.9921582 156.88705078 -30.2878418 157.22705078 C-35.8978418 170.75705078 -41.5078418 184.28705078 -47.2878418 198.22705078 C-62.7978418 198.22705078 -78.3078418 198.22705078 -94.2878418 198.22705078 C-93.45682471 194.07196536 -92.52516843 191.20059333 -90.8034668 187.41455078 C-90.28743896 186.27236084 -89.77141113 185.1301709 -89.23974609 183.95336914 C-88.67246932 182.71125176 -88.10516715 181.46914598 -87.5378418 180.22705078 C-86.94719516 178.9233487 -86.3571174 177.61938875 -85.76757812 176.31518555 C-84.54497288 173.61176706 -83.31994376 170.90946792 -82.09301758 168.20800781 C-79.36727259 162.20243971 -76.67154228 156.18342682 -73.9753418 150.16455078 C-73.44779297 148.98828125 -72.92024414 147.81201172 -72.37670898 146.60009766 C-67.99154243 136.81894037 -63.63778468 127.02391347 -59.2878418 117.22705078 C-53.98458156 105.28317686 -48.66529828 93.3468809 -43.31152344 81.42553711 C-40.1456172 74.37533571 -36.98987424 67.32071619 -33.8425293 60.26220703 C-32.68426316 57.66643449 -31.52585367 55.07072597 -30.36740112 52.47503662 C-29.61442982 50.78688233 -28.86207578 49.09845257 -28.11038208 47.409729 C-27.05526765 45.03951739 -25.99793233 42.67030735 -24.94018555 40.30126953 C-24.63027679 39.60348892 -24.32036804 38.90570831 -24.00106812 38.18678284 C-22.4599826 34.74066282 -20.88234031 31.31240766 -19.24707031 27.90991211 C-18.9435817 27.27507401 -18.64009308 26.6402359 -18.32740784 25.98616028 C-17.2878418 24.22705078 -17.2878418 24.22705078 -15.66539001 22.68437195 C-13.94437333 21.19791708 -13.94437333 21.19791708 -14.2878418 18.22705078 C-13.2978418 17.73205078 -13.2978418 17.73205078 -12.2878418 17.22705078 C-12.7828418 15.74205078 -12.7828418 15.74205078 -13.2878418 14.22705078 C-12.29579588 12.88778879 -11.29357958 11.55606142 -10.2878418 10.22705078 C-9.49077855 8.18152622 -8.79488412 6.12426764 -8.1315918 4.03173828 C-6.39840819 0.32465113 -3.68734284 -0.02162664 0 0 Z " fill="#79706F" transform="translate(883.287841796875,134.77294921875)"/>
<path d="M0 0 C1.29099861 0.00022659 1.29099861 0.00022659 2.608078 0.00045776 C3.99571098 0.01594162 3.99571098 0.01594162 5.41137695 0.03173828 C6.36156204 0.03456818 7.31174713 0.03739807 8.29072571 0.04031372 C11.32716435 0.05151363 14.36330863 0.0766179 17.3996582 0.10205078 C19.45759665 0.11208082 21.51553972 0.12120663 23.57348633 0.12939453 C28.6198238 0.15145236 33.66594108 0.18598096 38.7121582 0.22705078 C40.95029227 5.72352359 43.12389149 11.20594587 44.9621582 16.85205078 C45.29731445 17.87556641 45.6324707 18.89908203 45.9777832 19.95361328 C46.34129883 21.07896484 46.34129883 21.07896484 46.7121582 22.22705078 C47.3721582 22.22705078 48.0321582 22.22705078 48.7121582 22.22705078 C49.34831055 23.69851562 49.34831055 23.69851562 49.99731445 25.19970703 C54.37647225 35.29015285 58.79149322 45.38572082 63.7121582 55.22705078 C64.0421582 53.57705078 64.3721582 51.92705078 64.7121582 50.22705078 C80.8821582 50.22705078 97.0521582 50.22705078 113.7121582 50.22705078 C113.7121582 66.39705078 113.7121582 82.56705078 113.7121582 99.22705078 C103.8121582 99.55705078 93.9121582 99.88705078 83.7121582 100.22705078 C84.93290039 102.92248047 86.15364258 105.61791016 87.41137695 108.39501953 C114.5561124 168.34425909 114.5561124 168.34425909 125.7121582 194.22705078 C126.7021582 194.22705078 127.6921582 194.22705078 128.7121582 194.22705078 C129.3721582 194.55705078 130.0321582 194.88705078 130.7121582 195.22705078 C130.7121582 196.21705078 130.7121582 197.20705078 130.7121582 198.22705078 C113.5521582 198.22705078 96.3921582 198.22705078 78.7121582 198.22705078 C74.54293805 189.19374045 70.56821512 180.24045881 66.8371582 171.03955078 C66.33958008 169.8271875 65.84200195 168.61482422 65.3293457 167.36572266 C64.86012695 166.21265625 64.3909082 165.05958984 63.9074707 163.87158203 C63.48481934 162.83364502 63.06216797 161.79570801 62.62670898 160.72631836 C61.7121582 158.22705078 61.7121582 158.22705078 61.7121582 156.22705078 C31.3521582 156.55705078 0.9921582 156.88705078 -30.2878418 157.22705078 C-35.8978418 170.75705078 -41.5078418 184.28705078 -47.2878418 198.22705078 C-62.7978418 198.22705078 -78.3078418 198.22705078 -94.2878418 198.22705078 C-93.45682471 194.07196536 -92.52516843 191.20059333 -90.8034668 187.41455078 C-90.28743896 186.27236084 -89.77141113 185.1301709 -89.23974609 183.95336914 C-88.67246932 182.71125176 -88.10516715 181.46914598 -87.5378418 180.22705078 C-86.94719516 178.9233487 -86.3571174 177.61938875 -85.76757812 176.31518555 C-84.54497288 173.61176706 -83.31994376 170.90946792 -82.09301758 168.20800781 C-79.36727259 162.20243971 -76.67154228 156.18342682 -73.9753418 150.16455078 C-73.44779297 148.98828125 -72.92024414 147.81201172 -72.37670898 146.60009766 C-67.99154243 136.81894037 -63.63778468 127.02391347 -59.2878418 117.22705078 C-53.98458156 105.28317686 -48.66529828 93.3468809 -43.31152344 81.42553711 C-40.1456172 74.37533571 -36.98987424 67.32071619 -33.8425293 60.26220703 C-32.68426316 57.66643449 -31.52585367 55.07072597 -30.36740112 52.47503662 C-29.61442982 50.78688233 -28.86207578 49.09845257 -28.11038208 47.409729 C-27.05526765 45.03951739 -25.99793233 42.67030735 -24.94018555 40.30126953 C-24.63027679 39.60348892 -24.32036804 38.90570831 -24.00106812 38.18678284 C-22.4599826 34.74066282 -20.88234031 31.31240766 -19.24707031 27.90991211 C-18.9435817 27.27507401 -18.64009308 26.6402359 -18.32740784 25.98616028 C-17.2878418 24.22705078 -17.2878418 24.22705078 -15.66539001 22.68437195 C-13.94437333 21.19791708 -13.94437333 21.19791708 -14.2878418 18.22705078 C-13.2978418 17.73205078 -13.2978418 17.73205078 -12.2878418 17.22705078 C-12.7828418 15.74205078 -12.7828418 15.74205078 -13.2878418 14.22705078 C-12.29579588 12.88778879 -11.29357958 11.55606142 -10.2878418 10.22705078 C-9.49077855 8.18152622 -8.79488412 6.12426764 -8.1315918 4.03173828 C-6.39840819 0.32465113 -3.68734284 -0.02162664 0 0 Z " fill="#6C6463" transform="translate(883.287841796875,134.77294921875)"/>
<path d="M0 0 C1.23082306 0.00022659 1.23082306 0.00022659 2.48651123 0.00045776 C3.80078094 0.01594162 3.80078094 0.01594162 5.14160156 0.03173828 C6.04597961 0.03456818 6.95035767 0.03739807 7.88214111 0.04031372 C10.76563851 0.05149296 13.64882332 0.07659345 16.53222656 0.10205078 C18.48925332 0.1120835 20.44628496 0.12120884 22.40332031 0.12939453 C27.19640919 0.15142493 31.9892649 0.18593934 36.78222656 0.22705078 C39.78222656 6.85205078 39.78222656 6.85205078 39.78222656 10.22705078 C40.36101562 10.94892578 40.93980469 11.67080078 41.53613281 12.41455078 C44.25023698 15.81308122 45.91279288 19.29240855 47.71972656 23.22705078 C48.297146 24.46539673 48.297146 24.46539673 48.88623047 25.72875977 C53.0525258 34.71320308 57.08278056 43.76012488 61.11824036 52.80386353 C65.42789872 62.45943365 69.79125782 72.0903533 74.15753174 81.72042847 C80.00753933 94.62458808 85.83460135 107.53509585 91.50146484 120.52099609 C96.0018943 130.79837789 100.64868257 141.00918537 105.28222656 151.22705078 C110.72311328 163.228128 116.15682502 175.23113603 121.46972656 187.28955078 C122.14648438 188.82192383 122.14648438 188.82192383 122.83691406 190.38525391 C123.23523438 191.29339844 123.63355469 192.20154297 124.04394531 193.13720703 C124.38385498 193.91201416 124.72376465 194.68682129 125.07397461 195.48510742 C125.78222656 197.22705078 125.78222656 197.22705078 125.78222656 198.22705078 C109.61222656 198.22705078 93.44222656 198.22705078 76.78222656 198.22705078 C71.17222656 184.69705078 65.56222656 171.16705078 59.78222656 157.22705078 C33.05222656 156.89705078 6.32222656 156.56705078 -21.21777344 156.22705078 C-21.21777344 148.63705078 -21.21777344 141.04705078 -21.21777344 133.22705078 C-35.73777344 133.22705078 -50.25777344 133.22705078 -65.21777344 133.22705078 C-65.21777344 147.74705078 -65.21777344 162.26705078 -65.21777344 177.22705078 C-57.29777344 177.22705078 -49.37777344 177.22705078 -41.21777344 177.22705078 C-42.12514953 181.76393125 -43.4821877 185.72814041 -45.21777344 189.97705078 C-45.49105469 190.66154297 -45.76433594 191.34603516 -46.04589844 192.05126953 C-48.08176845 197.0910458 -48.08176845 197.0910458 -49.21777344 198.22705078 C-50.69131692 198.32009096 -52.16927935 198.34451343 -53.64575195 198.34057617 C-54.58665176 198.34050064 -55.52755157 198.34042511 -56.4969635 198.34034729 C-57.51986984 198.335186 -58.54277618 198.33002472 -59.59667969 198.32470703 C-61.15937843 198.32258461 -61.15937843 198.32258461 -62.75364685 198.32041931 C-66.09588438 198.31480158 -69.43805601 198.30224608 -72.78027344 198.28955078 C-75.0400381 198.28453807 -77.2998038 198.27997476 -79.55957031 198.27587891 C-85.11232734 198.26482639 -90.66504568 198.24807102 -96.21777344 198.22705078 C-93.94718859 191.41529623 -91.04620056 184.82671407 -88.21777344 178.22705078 C-98.44777344 177.89705078 -108.67777344 177.56705078 -119.21777344 177.22705078 C-119.38411142 172.0859275 -119.5467104 166.94495903 -119.69995117 161.8034668 C-119.75311994 160.05665461 -119.80842738 158.3099061 -119.8659668 156.56323242 C-119.94858425 154.04375941 -120.02335243 151.52415302 -120.09667969 149.00439453 C-120.12371475 148.2311937 -120.15074982 147.45799286 -120.17860413 146.66136169 C-120.20874855 145.55100304 -120.20874855 145.55100304 -120.23950195 144.41821289 C-120.25948746 143.77645615 -120.27947296 143.1346994 -120.30006409 142.47349548 C-120.18646576 139.37238544 -119.65663077 136.29905213 -119.21777344 133.22705078 C-104.69777344 133.22705078 -90.17777344 133.22705078 -75.21777344 133.22705078 C-74.72277344 140.15705078 -74.72277344 140.15705078 -74.21777344 147.22705078 C-65.55297488 128.01564337 -56.89516172 108.8013201 -48.34277344 89.53955078 C-48.02786957 88.83054626 -47.7129657 88.12154175 -47.38851929 87.39105225 C-43.69103543 79.06523961 -40.00024309 70.73647405 -36.31274414 62.40623474 C-34.49895446 58.31005654 -32.6832878 54.21471172 -30.86737061 50.11947632 C-29.98613851 48.13080093 -29.10578687 46.14173512 -28.22637939 44.1522522 C-26.9925936 41.36112046 -25.75585961 38.57131142 -24.51855469 35.78173828 C-24.15771286 34.96339005 -23.79687103 34.14504181 -23.4250946 33.30189514 C-19.76043165 25.05543861 -15.78667995 17.01111372 -11.21777344 9.22705078 C-10.55777344 9.22705078 -9.89777344 9.22705078 -9.21777344 9.22705078 C-9.13527344 8.11330078 -9.05277344 6.99955078 -8.96777344 5.85205078 C-8.21777344 2.22705078 -8.21777344 2.22705078 -6.43450928 1.01467896 C-4.12257446 0.19322564 -2.44415338 -0.01508737 0 0 Z " fill="#756B6A" transform="translate(555.2177734375,134.77294921875)"/>
<path d="M0 0 C0.69843631 -0.00155999 1.39687263 -0.00311998 2.11647367 -0.00472724 C4.47419518 -0.00873951 6.83185313 -0.00554674 9.1895752 -0.00241089 C10.87280821 -0.00376483 12.55604092 -0.00554472 14.23927307 -0.00772095 C18.82385287 -0.01229614 23.40841028 -0.01050537 27.99299049 -0.00734186 C32.77983284 -0.0048187 37.56667321 -0.00715567 42.35351562 -0.00872803 C50.39376166 -0.01054985 58.43399852 -0.00814308 66.47424316 -0.00338745 C75.7838138 0.00205519 85.09336254 0.00029255 94.40293264 -0.00521386 C102.38082362 -0.00974462 110.35870798 -0.01039572 118.33659983 -0.00777519 C123.10806544 -0.00621221 127.87952075 -0.00601921 132.65098572 -0.00931168 C137.13573169 -0.01218986 141.62044929 -0.01021568 146.10519218 -0.00441742 C147.75603119 -0.00308954 149.40687257 -0.00348441 151.05771065 -0.00568008 C153.30160876 -0.00839049 155.5454145 -0.00501184 157.78930664 0 C159.67749493 0.00056554 159.67749493 0.00056554 161.60382843 0.0011425 C164.39465332 0.12698364 164.39465332 0.12698364 165.39465332 1.12698364 C165.48323207 3.86568606 165.50996039 6.57973347 165.49230957 9.31838989 C165.49130249 10.04473633 165.49029541 10.77108276 165.48925781 11.5194397 C165.48401048 14.24280365 165.47004932 16.96614517 165.45715332 19.68948364 C165.43652832 25.77385864 165.41590332 31.85823364 165.39465332 38.12698364 C144.60465332 38.12698364 123.81465332 38.12698364 102.39465332 38.12698364 C102.39989014 42.96862183 102.40512695 47.81026001 102.41052246 52.7986145 C102.42705366 68.75220745 102.43817348 84.70580073 102.44646549 100.65939999 C102.45162885 110.33699415 102.45867229 120.01458022 102.47009277 129.69216919 C102.48003841 138.12398695 102.48650646 146.55579886 102.48874182 154.98762232 C102.49004913 159.45505757 102.49313627 163.92247604 102.50038338 168.38990593 C102.5071417 172.58982524 102.50927067 176.78972078 102.507761 180.989645 C102.50803742 182.53566873 102.51004365 184.08169321 102.5138588 185.62771225 C102.51879312 187.7293414 102.5176526 189.83087936 102.51490784 191.93251038 C102.51582963 193.1114836 102.51675142 194.29045683 102.51770115 195.50515652 C102.39465332 198.12698364 102.39465332 198.12698364 101.39465332 199.12698364 C86.21465332 199.12698364 71.03465332 199.12698364 55.39465332 199.12698364 C55.39465332 145.99698364 55.39465332 92.86698364 55.39465332 38.12698364 C34.60465332 38.12698364 13.81465332 38.12698364 -7.60534668 38.12698364 C-7.62597168 32.04260864 -7.64659668 25.95823364 -7.66784668 19.68948364 C-7.67695068 17.76692749 -7.68605469 15.84437134 -7.69543457 13.86355591 C-7.69835375 12.34850128 -7.7009023 10.83344588 -7.70300293 9.31838989 C-7.7081189 8.52460938 -7.71323486 7.73082886 -7.71850586 6.91299438 C-7.71881624 4.98395535 -7.66770561 3.05501452 -7.60534668 1.12698364 C-5.72622154 -0.7521415 -2.4996885 0.00074869 0 0 Z " fill="#8F8684" transform="translate(655.6053466796875,134.87301635742188)"/>
<path d="M0 0 C0.9265741 0.00565979 1.85314819 0.01131958 2.80780029 0.01715088 C5.76302062 0.03951579 8.71702205 0.08971238 11.671875 0.140625 C13.6770658 0.16068985 15.68227564 0.17894065 17.6875 0.1953125 C22.59942694 0.239381 27.51044442 0.30840945 32.421875 0.390625 C31.73513089 3.32524273 30.7924549 5.70722911 29.421875 8.390625 C28.95876001 9.69430709 28.52247029 11.00774067 28.109375 12.328125 C26.86337952 16.13464121 25.52322324 19.89302084 24.109375 23.640625 C23.74199219 24.61515625 23.37460937 25.5896875 22.99609375 26.59375 C21.17155191 31.15609012 19.03374386 35.5797374 16.96362305 40.03417969 C14.70735863 44.94615485 12.59419053 49.91440024 10.484375 54.890625 C4.19370636 69.64730927 -2.19078292 84.3630738 -8.578125 99.078125 C-9.09043671 100.25890625 -9.60274841 101.4396875 -10.13058472 102.65625 C-11.61259751 106.07183216 -13.0952322 109.48714357 -14.578125 112.90234375 C-15.02253433 113.92643845 -15.46694366 114.95053314 -15.92481995 116.00566101 C-18.44795549 121.81328504 -20.99495598 127.60944268 -23.578125 133.390625 C-24.568125 133.390625 -25.558125 133.390625 -26.578125 133.390625 C-26.41763672 134.73447266 -26.41763672 134.73447266 -26.25390625 136.10546875 C-26.27363062 142.17298728 -29.32553909 147.52819683 -31.765625 152.953125 C-32.57705863 154.7994448 -33.38847526 156.64577222 -34.19906616 158.49246216 C-35.05682484 160.44164298 -35.92028469 162.38822153 -36.78466797 164.33447266 C-39.19970883 169.78226313 -41.55819827 175.25439385 -43.92016602 180.7253418 C-46.46598696 186.61672654 -49.02319765 192.50318373 -51.578125 198.390625 C-67.088125 198.390625 -82.598125 198.390625 -98.578125 198.390625 C-101.053125 192.615625 -103.528125 186.840625 -106.078125 180.890625 C-106.93059814 178.9017627 -107.78307129 176.91290039 -108.66137695 174.86376953 C-112.86404304 165.05870573 -117.06558029 155.25316028 -121.26473999 145.44659424 C-123.13845262 141.07082869 -125.01259688 136.69524805 -126.88683128 132.31970596 C-128.19751013 129.25974743 -129.50789187 126.19966246 -130.81787109 123.1394043 C-132.30378867 119.66821121 -133.79052193 116.19736835 -135.27734375 112.7265625 C-135.74151703 111.64151428 -136.20569031 110.55646606 -136.68392944 109.4385376 C-138.70881657 104.71278366 -140.74465394 99.99356548 -142.83837891 95.29785156 C-143.17198929 94.54782867 -143.50559967 93.79780579 -143.84931946 93.02505493 C-144.44969588 91.68079361 -145.05474997 90.33860605 -145.66569519 88.99911499 C-146.8939314 86.25091692 -147.578125 84.44517216 -147.578125 81.390625 C-135.698125 81.390625 -123.818125 81.390625 -111.578125 81.390625 C-111.578125 72.150625 -111.578125 62.910625 -111.578125 53.390625 C-109.03029542 56.78773111 -107.65086351 59.24104568 -106.07421875 63.0859375 C-105.58945068 64.25688965 -105.10468262 65.4278418 -104.60522461 66.63427734 C-104.34724091 67.26436707 -104.0892572 67.89445679 -103.82345581 68.54364014 C-102.41055316 71.99265767 -100.97769391 75.43338541 -99.546875 78.875 C-99.23793808 79.61926239 -98.92900116 80.36352478 -98.61070251 81.13034058 C-94.48886125 91.04130222 -90.2486566 100.90178453 -86.015625 110.765625 C-85.23428156 112.58869926 -84.45294994 114.41177858 -83.67163086 116.23486328 C-82.93095349 117.96131737 -82.19015492 119.68771947 -81.44921875 121.4140625 C-81.11736572 122.18800354 -80.7855127 122.96194458 -80.44360352 123.75933838 C-78.19622028 128.98831256 -75.90057472 134.1945724 -73.578125 139.390625 C-71.00450844 136.81700844 -69.94210208 133.89608906 -68.55859375 130.59375 C-68.26393723 129.90156372 -67.9692807 129.20937744 -67.66569519 128.49621582 C-66.69465783 126.21283786 -65.73022801 123.92672763 -64.765625 121.640625 C-63.74446167 119.23519611 -62.72158207 116.83050175 -61.6986084 114.42584229 C-61.0031527 112.79078156 -60.30825199 111.15548467 -59.6138916 109.5199585 C-56.43705357 102.04109777 -53.19967554 94.58941844 -49.953125 87.140625 C-46.59614288 79.43309356 -43.27980512 71.71269474 -40.0546875 63.94921875 C-39.76242279 63.24675018 -39.47015808 62.54428162 -39.16903687 61.82052612 C-37.76444733 58.44233075 -36.36599019 55.06181812 -34.97802734 51.67675781 C-32.48220502 45.65257956 -29.92001143 39.82879027 -26.61352539 34.20239258 C-24.9989639 31.37719549 -23.81301656 28.3973175 -22.578125 25.390625 C-21.85341092 23.7428262 -21.12410393 22.09704107 -20.390625 20.453125 C-19.87435547 19.29490234 -19.87435547 19.29490234 -19.34765625 18.11328125 C-19.09371094 17.54480469 -18.83976563 16.97632813 -18.578125 16.390625 C-17.918125 16.390625 -17.258125 16.390625 -16.578125 16.390625 C-16.248125 14.080625 -15.918125 11.770625 -15.578125 9.390625 C-14.588125 9.060625 -13.598125 8.730625 -12.578125 8.390625 C-12.825625 7.813125 -13.073125 7.235625 -13.328125 6.640625 C-13.578125 4.390625 -13.578125 4.390625 -12.19238281 2.27441406 C-8.2648598 -0.55569124 -4.72191005 -0.10855087 0 0 Z " fill="#6E6564" transform="translate(462.578125,134.609375)"/>
<path d="M0 0 C16.17 0 32.34 0 49 0 C53.51660458 9.67843839 57.87263478 19.20868005 61.61523438 29.1796875 C61.97037109 30.05625 62.32550781 30.9328125 62.69140625 31.8359375 C62.99248291 32.61501465 63.29355957 33.3940918 63.60375977 34.19677734 C65.24574511 36.73910056 65.24574511 36.73910056 71 37 C71 51.52 71 66.04 71 81 C62.09 81.2784375 62.09 81.2784375 53 81.5625 C50.21175781 81.65446655 50.21175781 81.65446655 47.3671875 81.74829102 C45.86980594 81.7923177 44.37241081 81.83588588 42.875 81.87890625 C42.11703125 81.90561401 41.3590625 81.93232178 40.578125 81.95983887 C35.60438993 82.09523855 30.92424612 81.72544697 26 81 C26.00902344 79.741875 26.01804687 78.48375 26.02734375 77.1875 C25.99915033 75.45830384 25.96909973 73.72913727 25.9375 72 C25.95393555 70.77023438 25.95393555 70.77023438 25.97070312 69.515625 C25.70910691 59.64971051 22.44529275 55.16066914 18 45 C17.67 56.88 17.34 68.76 17 81 C11.8025 81.185625 6.605 81.37125 1.25 81.5625 C-1.17037598 81.65446655 -1.17037598 81.65446655 -3.63964844 81.74829102 C-4.9496582 81.79139404 -6.25966797 81.83449707 -7.609375 81.87890625 C-8.2605127 81.90561401 -8.91165039 81.93232178 -9.58251953 81.95983887 C-15.86822035 82.15186407 -21.59425367 81.53381219 -28 81 C-28 66.48 -28 51.96 -28 37 C-13.81 37 0.38 37 15 37 C11.18643759 28.42933198 11.18643759 28.42933198 7.37182617 19.85913086 C6.65216675 18.24083374 6.65216675 18.24083374 5.91796875 16.58984375 C5.43094482 15.49534912 4.9439209 14.40085449 4.44213867 13.27319336 C3.96623291 12.19303955 3.49032715 11.11288574 3 10 C2.71984039 9.38553009 2.43968079 8.77106018 2.15103149 8.13796997 C0.85583926 5.24371877 0 3.20867522 0 0 Z " fill="#B9B0AF" transform="translate(280,135)"/>
<path d="M0 0 C6.93 0 13.86 0 21 0 C21 18.81 21 37.62 21 57 C32.55 57 44.1 57 56 57 C56.495 62.94 56.495 62.94 57 69 C57.48243164 67.89938232 57.96486328 66.79876465 58.46191406 65.66479492 C67.92175793 44.08616242 77.3994704 22.51648106 87 1 C94.26 1 101.52 1 109 1 C112.5933476 9.20604421 116.18484367 17.41289322 119.7734375 25.62101746 C121.62532494 29.85675132 123.47787429 34.09219375 125.33154297 38.32714844 C127.29727736 42.81842358 129.26107712 47.31054048 131.22366333 51.80319214 C131.99244711 53.56220253 132.7618788 55.3209299 133.5319519 57.07937622 C134.61415002 59.55087525 135.69406532 62.02335952 136.7734375 64.49609375 C137.10089462 65.24253143 137.42835175 65.98896912 137.76573181 66.75802612 C140 71.8859633 140 71.8859633 140 73 C132.74 73 125.48 73 118 73 C113 61.25 113 61.25 113 59 C102.77 59 92.54 59 82 59 C81.01 62.3 80.02 65.6 79 69 C78.01 70.98 78.01 70.98 77 73 C51.59 73 26.18 73 0 73 C0 48.91 0 24.82 0 0 Z " fill="#494645" transform="translate(975,348)"/>
<path d="M0 0 C7.734375 -0.04125 15.46875 -0.0825 23.4375 -0.125 C25.86150146 -0.14320801 28.28550293 -0.16141602 30.78295898 -0.18017578 C32.72900166 -0.18602331 34.67504681 -0.19111825 36.62109375 -0.1953125 C37.6114563 -0.20554443 38.60181885 -0.21577637 39.62219238 -0.22631836 C51.19602522 -0.22919206 60.07784206 2.53905377 69.8125 8.8125 C77.28230537 16.28230537 79.17651967 24.58848953 79.375 34.875 C79.35687913 44.12623875 77.16388515 51.64498449 70.75390625 58.47265625 C60.49107105 67.40978 46.87117523 69.17045567 33.7890625 69.09765625 C32.93014404 69.09664917 32.07122559 69.09564209 31.1862793 69.09460449 C27.99917248 69.08940002 24.8120848 69.07543887 21.625 69.0625 C14.48875 69.041875 7.3525 69.02125 0 69 C0 46.23 0 23.46 0 0 Z " fill="#FAFBFB" transform="translate(1056,173)"/>
<path d="M0 0 C2.76074201 2.76074201 3.80889438 6.07112601 5.23828125 9.63671875 C5.55576828 10.41640518 5.87325531 11.19609161 6.20036316 11.99940491 C7.24228611 14.56028358 8.27739959 17.12385698 9.3125 19.6875 C10.75407589 23.2392731 12.1990693 26.78965065 13.64453125 30.33984375 C14.00841949 31.23478546 14.37230774 32.12972717 14.7472229 33.05178833 C17.10721971 38.84505589 19.50798586 44.61942342 21.94921875 50.37890625 C22.25370438 51.09821823 22.55819 51.81753021 22.87190247 52.55863953 C24.02940695 55.29058604 25.18797467 58.02200758 26.35684204 60.74911499 C27.14856219 62.59648138 27.93383038 64.44660892 28.71875 66.296875 C29.16154297 67.33166992 29.60433594 68.36646484 30.06054688 69.43261719 C31 72 31 72 31 75 C12.52 75 -5.96 75 -25 75 C-25 85.23 -25 95.46 -25 106 C-41.17 106 -57.34 106 -74 106 C-74 89.83 -74 73.66 -74 57 C-57.5 57 -41 57 -24 57 C-13.38965751 31.7672254 -13.38965751 31.7672254 -3.171875 6.37402344 C-1.09891773 1.09891773 -1.09891773 1.09891773 0 0 Z " fill="#F4996E" transform="translate(205,181)"/>
<path d="M0 0 C6.868125 -0.061875 13.73625 -0.12375 20.8125 -0.1875 C24.02963745 -0.22846802 24.02963745 -0.22846802 27.31176758 -0.27026367 C51.02011319 -0.4467354 51.02011319 -0.4467354 60 7 C64.60626667 12.22873514 65.34811973 15.30494986 65.28515625 22.16796875 C64.85630761 26.42708194 63.5640395 28.58128067 61 32 C59.69112873 33.03181093 58.36161311 34.03886134 57 35 C57.53109375 35.35191406 58.0621875 35.70382812 58.609375 36.06640625 C63.33853452 39.37164 67.20874145 42.35920443 69 48 C69.92113107 53.36010554 69.59499749 57.64651535 66.8125 62.375 C61.74109316 69.35696454 56.26767558 71.30491704 48 73 C44.13142577 73.35688968 40.30811017 73.35376228 36.42578125 73.29296875 C35.49326538 73.28994751 34.56074951 73.28692627 33.59997559 73.28381348 C30.17070182 73.2683103 26.74158784 73.22642906 23.3125 73.1875 C11.7728125 73.0946875 11.7728125 73.0946875 0 73 C0 48.91 0 24.82 0 0 Z " fill="#4A4645" transform="translate(1121,348)"/>
<path d="M0 0 C16.5 0 33 0 50 0 C50 16.5 50 33 50 50 C33.5 50 17 50 0 50 C0 33.5 0 17 0 0 Z " fill="#5264AC" transform="translate(1118,17)"/>
<path d="M0 0 C8.064375 -0.020625 16.12875 -0.04125 24.4375 -0.0625 C26.98654053 -0.071604 29.53558105 -0.08070801 32.16186523 -0.09008789 C34.16910754 -0.09300688 36.17635043 -0.09555548 38.18359375 -0.09765625 C39.76291687 -0.1053302 39.76291687 -0.1053302 41.37414551 -0.11315918 C42.36885864 -0.11328003 43.36357178 -0.11340088 44.38842773 -0.11352539 C45.25668686 -0.115746 46.12494598 -0.11796661 47.01951599 -0.12025452 C49 0 49 0 50 1 C50.09319449 2.5348297 50.117458 4.07392082 50.11352539 5.61157227 C50.11340454 6.6062854 50.11328369 7.60099854 50.11315918 8.62585449 C50.10804321 9.67873657 50.10292725 10.73161865 50.09765625 11.81640625 C50.09664917 12.77865112 50.09564209 13.740896 50.09460449 14.7322998 C50.0893546 18.34237858 50.07539348 21.95244043 50.0625 25.5625 C50.0315625 37.6590625 50.0315625 37.6590625 50 50 C33.5 50 17 50 0 50 C0 33.5 0 17 0 0 Z " fill="#EEE764" transform="translate(1195,399)"/>
<path d="M0 0 C0.33 0 0.66 0 1 0 C1 11.22 1 22.44 1 34 C17.17 34 33.34 34 50 34 C50 23.77 50 13.54 50 3 C50.99 3.495 50.99 3.495 52 4 C52 14.23 52 24.46 52 35 C49.65061112 36.17469444 48.04926795 36.20034889 45.4296875 36.31640625 C44.53378906 36.35830078 43.63789063 36.40019531 42.71484375 36.44335938 C41.77769531 36.48267578 40.84054688 36.52199219 39.875 36.5625 C38.93011719 36.60568359 37.98523438 36.64886719 37.01171875 36.69335938 C34.67462908 36.79959072 32.3374317 36.90163176 30 37 C29.56131592 38.08941895 29.12263184 39.17883789 28.6706543 40.30126953 C27.03497938 44.36136626 25.39602606 48.42013292 23.75610352 52.47851562 C23.04818348 54.23173774 22.34114072 55.98531436 21.63500977 57.73925781 C20.61707973 60.267225 19.59595168 62.79388033 18.57421875 65.3203125 C18.26159592 66.09867462 17.94897308 66.87703674 17.62687683 67.6789856 C17.1767498 68.78945755 17.1767498 68.78945755 16.7175293 69.92236328 C16.45771774 70.56634064 16.19790619 71.21031799 15.93022156 71.87380981 C14.72418105 74.63043426 13.34562343 77.30875314 12 80 C-3.51 80 -19.02 80 -35 80 C-31.6277635 69.88329049 -31.6277635 69.88329049 -29.7578125 65.890625 C-29.33798096 64.98586426 -28.91814941 64.08110352 -28.4855957 63.14892578 C-28.03659912 62.19228027 -27.58760254 61.23563477 -27.125 60.25 C-26.14078819 58.12813206 -25.1577687 56.00571077 -24.17578125 53.8828125 C-23.65967285 52.7680957 -23.14356445 51.65337891 -22.61181641 50.50488281 C-19.80306194 44.39726707 -17.05729523 38.26156287 -14.3125 32.125 C-14.03800018 31.51173859 -13.76350037 30.89847717 -13.48068237 30.26663208 C-8.96883435 20.18589167 -4.4742523 10.09748177 0 0 Z " fill="#3C3B3D" transform="translate(130,253)"/>
<path d="M0 0 C16.5 0 33 0 50 0 C50 16.17 50 32.34 50 49 C33.5 49 17 49 0 49 C0 32.83 0 16.66 0 0 Z " fill="#F4EB44" transform="translate(1139,455)"/>
<path d="M0 0 C16.5 0 33 0 50 0 C50 16.17 50 32.34 50 49 C33.5 49 17 49 0 49 C0 32.83 0 16.66 0 0 Z " fill="#FBE24C" transform="translate(1027,455)"/>
<path d="M0 0 C16.5 0 33 0 50 0 C50 16.17 50 32.34 50 49 C33.5 49 17 49 0 49 C0 32.83 0 16.66 0 0 Z " fill="#FCC961" transform="translate(915,400)"/>
<path d="M0 0 C16.5 0 33 0 50 0 C50 16.17 50 32.34 50 49 C33.5 49 17 49 0 49 C0 32.83 0 16.66 0 0 Z " fill="#FBC863" transform="translate(915,344)"/>
<path d="M0 0 C16.5 0 33 0 50 0 C50 16.17 50 32.34 50 49 C33.5 49 17 49 0 49 C0 32.83 0 16.66 0 0 Z " fill="#456FB6" transform="translate(1192,287)"/>
<path d="M0 0 C16.5 0 33 0 50 0 C50 16.17 50 32.34 50 49 C33.5 49 17 49 0 49 C0 32.83 0 16.66 0 0 Z " fill="#414276" transform="translate(1192,232)"/>
<path d="M0 0 C16.5 0 33 0 50 0 C50 16.17 50 32.34 50 49 C33.5 49 17 49 0 49 C0 32.83 0 16.66 0 0 Z " fill="#77A3D4" transform="translate(1174,73)"/>
<path d="M0 0 C16.17 0 32.34 0 49 0 C49 16.17 49 32.34 49 49 C32.83 49 16.66 49 0 49 C-0.4375 36.75 -0.4375 36.75 -0.56811523 32.96777344 C-0.80203456 26.67123881 -1.19179554 20.46752919 -1.99633789 14.21582031 C-2.00178706 9.43072023 -0.85598528 4.70791904 0 0 Z " fill="#56BA6F" transform="translate(948,185)"/>
<path d="M0 0 C16.17 0 32.34 0 49 0 C49 16.17 49 32.34 49 49 C32.83 49 16.66 49 0 49 C0 32.83 0 16.66 0 0 Z " fill="#F9B658" transform="translate(971,455)"/>
<path d="M0 0 C16.17 0 32.34 0 49 0 C49 16.17 49 32.34 49 49 C32.83 49 16.66 49 0 49 C0 32.83 0 16.66 0 0 Z " fill="#EE7265" transform="translate(131,455)"/>
<path d="M0 0 C16.17 0 32.34 0 49 0 C49 16.17 49 32.34 49 49 C32.83 49 16.66 49 0 49 C0 32.83 0 16.66 0 0 Z " fill="#EA5351" transform="translate(299,400)"/>
<path d="M0 0 C16.17 0 32.34 0 49 0 C49 16.17 49 32.34 49 49 C32.83 49 16.66 49 0 49 C0 32.83 0 16.66 0 0 Z " fill="#F19064" transform="translate(187,400)"/>
<path d="M0 0 C16.17 0 32.34 0 49 0 C49 16.17 49 32.34 49 49 C32.83 49 16.66 49 0 49 C0 32.83 0 16.66 0 0 Z " fill="#F9EA88" transform="translate(859,344)"/>
<path d="M0 0 C16.17 0 32.34 0 49 0 C49 16.17 49 32.34 49 49 C32.83 49 16.66 49 0 49 C0 32.83 0 16.66 0 0 Z " fill="#F39D88" transform="translate(747,344)"/>
<path d="M0 0 C16.17 0 32.34 0 49 0 C49 16.17 49 32.34 49 49 C32.83 49 16.66 49 0 49 C0 32.83 0 16.66 0 0 Z " fill="#EF5E5E" transform="translate(579,344)"/>
<path d="M0 0 C16.17 0 32.34 0 49 0 C49 16.17 49 32.34 49 49 C32.83 49 16.66 49 0 49 C0 32.83 0 16.66 0 0 Z " fill="#E95255" transform="translate(523,344)"/>
<path d="M0 0 C16.17 0 32.34 0 49 0 C49 16.17 49 32.34 49 49 C32.83 49 16.66 49 0 49 C0 32.83 0 16.66 0 0 Z " fill="#F06763" transform="translate(411,344)"/>
<path d="M0 0 C16.17 0 32.34 0 49 0 C49 16.17 49 32.34 49 49 C32.83 49 16.66 49 0 49 C0 32.83 0 16.66 0 0 Z " fill="#EC585A" transform="translate(355,344)"/>
<path d="M0 0 C16.17 0 32.34 0 49 0 C49 16.17 49 32.34 49 49 C32.83 49 16.66 49 0 49 C0 32.83 0 16.66 0 0 Z " fill="#F29A6F" transform="translate(243,344)"/>
<path d="M0 0 C16.17 0 32.34 0 49 0 C49 16.17 49 32.34 49 49 C32.83 49 16.66 49 0 49 C0 32.83 0 16.66 0 0 Z " fill="#F5C0C3" transform="translate(131,344)"/>
<path d="M0 0 C16.17 0 32.34 0 49 0 C49 16.17 49 32.34 49 49 C32.83 49 16.66 49 0 49 C0 32.83 0 16.66 0 0 Z " fill="#DD4449" transform="translate(19,344)"/>
<path d="M0 0 C16.17 0 32.34 0 49 0 C49 16.17 49 32.34 49 49 C32.83 49 16.66 49 0 49 C0 32.83 0 16.66 0 0 Z " fill="#518751" transform="translate(1061,185)"/>
<path d="M0 0 C16.17 0 32.34 0 49 0 C49 16.17 49 32.34 49 49 C32.83 49 16.66 49 0 49 C0 32.83 0 16.66 0 0 Z " fill="#EE7360" transform="translate(75,183)"/>
<path d="M0 0 C16.17 0 32.34 0 49 0 C49 16.17 49 32.34 49 49 C32.83 49 16.66 49 0 49 C0 32.83 0 16.66 0 0 Z " fill="#E84751" transform="translate(355,120)"/>
<path d="M0 0 C16.17 0 32.34 0 49 0 C49 16.17 49 32.34 49 49 C32.83 49 16.66 49 0 49 C0 32.83 0 16.66 0 0 Z " fill="#6588C3" transform="translate(872,78)"/>
<path d="M0 0 C16.17 0 32.34 0 49 0 C49 16.17 49 32.34 49 49 C32.83 49 16.66 49 0 49 C0 32.83 0 16.66 0 0 Z " fill="#667FBD" transform="translate(816,78)"/>
<path d="M0 0 C16.17 0 32.34 0 49 0 C49 16.17 49 32.34 49 49 C32.83 49 16.66 49 0 49 C0 32.83 0 16.66 0 0 Z " fill="#6489C4" transform="translate(1062,73)"/>
<path d="M0 0 C16.17 0 32.34 0 49 0 C49 16.17 49 32.34 49 49 C32.83 49 16.66 49 0 49 C0 32.83 0 16.66 0 0 Z " fill="#7898CB" transform="translate(1006,73)"/>
<path d="M0 0 C16.17 0 32.34 0 49 0 C49 16.17 49 32.34 49 49 C32.83 49 16.66 49 0 49 C0 32.83 0 16.66 0 0 Z " fill="#F6AF4F" transform="translate(691,65)"/>
<path d="M0 0 C16.17 0 32.34 0 49 0 C49 16.17 49 32.34 49 49 C32.83 49 16.66 49 0 49 C0 32.83 0 16.66 0 0 Z " fill="#F17745" transform="translate(579,65)"/>
<path d="M0 0 C16.17 0 32.34 0 49 0 C49 16.17 49 32.34 49 49 C32.83 49 16.66 49 0 49 C0 32.83 0 16.66 0 0 Z " fill="#ED4C4E" transform="translate(523,65)"/>
<path d="M0 0 C16.17 0 32.34 0 49 0 C49 16.17 49 32.34 49 49 C32.83 49 16.66 49 0 49 C0 32.83 0 16.66 0 0 Z " fill="#E86D76" transform="translate(299,65)"/>
<path d="M0 0 C16.17 0 32.34 0 49 0 C49 16.17 49 32.34 49 49 C32.83 49 16.66 49 0 49 C0 32.83 0 16.66 0 0 Z " fill="#EE7265" transform="translate(131,65)"/>
<path d="M0 0 C16.17 0 32.34 0 49 0 C49 16.17 49 32.34 49 49 C32.83 49 16.66 49 0 49 C0 32.83 0 16.66 0 0 Z " fill="#4D61A9" transform="translate(872,22)"/>
<path d="M0 0 C16.17 0 32.34 0 49 0 C49 16.17 49 32.34 49 49 C32.83 49 16.66 49 0 49 C0 32.83 0 16.66 0 0 Z " fill="#5276B8" transform="translate(1006,18)"/>
<path d="M0 0 C0.66 0 1.32 0 2 0 C9.16492685 16.70758488 16.0859707 33.50322769 22.87133789 50.36791992 C23.4856111 51.89250755 24.10010635 53.41700573 24.71484375 54.94140625 C25.00551224 55.66287338 25.29618073 56.38434052 25.59565735 57.12767029 C27.13986823 60.94163004 28.7392816 64.71777952 30.44140625 68.46484375 C32 72 32 72 32 74 C11.54 74 -8.92 74 -30 74 C-26.62557078 63.87671233 -26.62557078 63.87671233 -25.02636719 60.04125977 C-24.66879333 59.1790834 -24.31121948 58.31690704 -23.94281006 57.42860413 C-23.56465149 56.52532883 -23.18649292 55.62205353 -22.796875 54.69140625 C-22.19555756 53.24301613 -22.19555756 53.24301613 -21.58209229 51.7653656 C-20.30768159 48.69650563 -19.02921036 45.62936206 -17.75 42.5625 C-16.07560352 38.54401288 -14.40358425 34.52455088 -12.734375 30.50390625 C-12.33005249 29.53079498 -11.92572998 28.55768372 -11.50915527 27.55508423 C-8.59263425 20.50662771 -5.78521901 13.42114753 -3.08050537 6.28871155 C-1.10115915 1.10115915 -1.10115915 1.10115915 0 0 Z " fill="#FCFCFD" transform="translate(898,182)"/>
<path d="M0 0 C2.87419438 2.87419438 3.98241338 6.43623949 5.4921875 10.14453125 C6.00588142 11.38898766 6.00588142 11.38898766 6.529953 12.65858459 C7.64979881 15.37459664 8.76255323 18.09344996 9.875 20.8125 C10.64077134 22.67546703 11.40696802 24.53825928 12.17358398 26.40087891 C13.33300359 29.21842775 14.4919078 32.03617992 15.64872742 34.85479736 C18.0079272 40.60146383 20.38879833 46.33841961 22.79296875 52.06640625 C23.35638421 53.41231097 23.91970164 54.75825672 24.48291016 56.10424805 C25.51574103 58.57256483 26.55396373 61.0383709 27.59521484 63.50317383 C28.04977051 64.59267334 28.50432617 65.68217285 28.97265625 66.8046875 C29.36718994 67.74296387 29.76172363 68.68124023 30.16821289 69.64794922 C31 72 31 72 31 75 C10.54 75 -9.92 75 -31 75 C-24.81159479 59.52898696 -18.60702349 44.07631757 -12.23779297 28.68041992 C-10.97014731 25.61531773 -9.70568513 22.54891411 -8.44140625 19.48242188 C-7.62778946 17.51294427 -6.81399464 15.54354021 -6 13.57421875 C-5.62609131 12.66709641 -5.25218262 11.75997406 -4.86694336 10.82536316 C-4.3449939 9.5654229 -4.3449939 9.5654229 -3.8125 8.2800293 C-3.35810547 7.18068306 -3.35810547 7.18068306 -2.89453125 6.05912781 C-1.99961326 3.99910976 -1.02312774 1.99901822 0 0 Z " fill="#FCFCFD" transform="translate(569,181)"/>
<path d="M0 0 C2.76074201 2.76074201 3.80889438 6.07112601 5.23828125 9.63671875 C5.55576828 10.41640518 5.87325531 11.19609161 6.20036316 11.99940491 C7.24228611 14.56028358 8.27739959 17.12385698 9.3125 19.6875 C10.75407589 23.2392731 12.1990693 26.78965065 13.64453125 30.33984375 C14.00841949 31.23478546 14.37230774 32.12972717 14.7472229 33.05178833 C17.10721971 38.84505589 19.50798586 44.61942342 21.94921875 50.37890625 C22.40594719 51.45787422 22.40594719 51.45787422 22.87190247 52.55863953 C24.02940695 55.29058604 25.18797467 58.02200758 26.35684204 60.74911499 C27.14856219 62.59648138 27.93383038 64.44660892 28.71875 66.296875 C29.16154297 67.33166992 29.60433594 68.36646484 30.06054688 69.43261719 C31 72 31 72 31 75 C12.52 75 -5.96 75 -25 75 C-25 57.7682971 -25 57.7682971 -22.03515625 51.21484375 C-21.72618912 50.47333572 -21.41722198 49.7318277 -21.09889221 48.96784973 C-20.11126287 46.61309183 -19.0879243 44.27600948 -18.0625 41.9375 C-17.37097453 40.30805048 -16.6820278 38.67750427 -15.99560547 37.04589844 C-14.640921 33.83416735 -13.27346721 30.62842628 -11.89404297 27.42724609 C-9.37756897 21.57226148 -7.00159994 15.66299678 -4.625 9.75 C-1.1566358 1.1566358 -1.1566358 1.1566358 0 0 Z " fill="#FCFDFD" transform="translate(205,181)"/>
<path d="M0 0 C6.93 0 13.86 0 21 0 C21 18.81 21 37.62 21 57 C32.22 57 43.44 57 55 57 C55 62.28 55 67.56 55 73 C36.85 73 18.7 73 0 73 C0 48.91 0 24.82 0 0 Z " fill="#4B4847" transform="translate(975,348)"/>
<path d="M0 0 C15.51 0 31.02 0 47 0 C47 14.52 47 29.04 47 44 C38.09 44.2784375 38.09 44.2784375 29 44.5625 C26.21175781 44.65446655 26.21175781 44.65446655 23.3671875 44.74829102 C21.86980594 44.7923177 20.37241081 44.83588588 18.875 44.87890625 C18.11703125 44.90561401 17.3590625 44.93232178 16.578125 44.95983887 C11.60438993 45.09523855 6.92424612 44.72544697 2 44 C1.98018066 43.43079834 1.96036133 42.86159668 1.93994141 42.27514648 C1.84388242 39.66218288 1.73453593 37.04993198 1.625 34.4375 C1.5940625 33.54224609 1.563125 32.64699219 1.53125 31.72460938 C1.30127783 26.49274255 0.67595556 21.96655124 -1 17 C-0.67 17 -0.34 17 0 17 C0 11.39 0 5.78 0 0 Z " fill="#6588C3" transform="translate(304,172)"/>
<path d="M0 0 C14.85 0 29.7 0 45 0 C45 14.52 45 29.04 45 44 C30.15 44 15.3 44 0 44 C0 29.48 0 14.96 0 0 Z " fill="#4B4A7C" transform="translate(766,226)"/>
<path d="M0 0 C14.52 0 29.04 0 44 0 C44.63197898 10.74364273 45.08326995 20.90416619 44.5625 31.5625 C44.2840625 37.7190625 44.2840625 37.7190625 44 44 C29.48 44 14.96 44 0 44 C-0.185625 38.039375 -0.37125 32.07875 -0.5625 25.9375 C-0.62381104 24.06956787 -0.68512207 22.20163574 -0.74829102 20.27709961 C-0.79230592 18.7771949 -0.83587366 17.27727697 -0.87890625 15.77734375 C-0.90561401 15.01425903 -0.93232178 14.25117432 -0.95983887 13.46496582 C-0.98026245 12.7146106 -1.00068604 11.96425537 -1.02172852 11.19116211 C-1.04171402 10.54940536 -1.06169952 9.90764862 -1.08229065 9.2464447 C-0.96869232 6.14533466 -0.43885734 3.07200135 0 0 Z " fill="#A291C2" transform="translate(436,268)"/>
<path d="M0 0 C14.52 0 29.04 0 44 0 C44 14.52 44 29.04 44 44 C21.00617284 45.14969136 21.00617284 45.14969136 10.75 44.5625 C7.2025 44.376875 3.655 44.19125 0 44 C0 29.48 0 14.96 0 0 Z " fill="#B9BEDF" transform="translate(490,268)"/>
<path d="M0 0 C0.66 0.99 1.32 1.98 2 3 C1.34 3 0.68 3 0 3 C0 16.86 0 30.72 0 45 C-5.0325 45.185625 -10.065 45.37125 -15.25 45.5625 C-17.59206543 45.65446655 -17.59206543 45.65446655 -19.98144531 45.74829102 C-28.06022257 46.02260847 -35.95539717 45.92503287 -44 45 C-44.0297226 40.83334907 -44.04703495 36.6667263 -44.0625 32.5 C-44.07087891 31.34628906 -44.07925781 30.19257813 -44.08789062 29.00390625 C-44.11299363 19.91661973 -43.57005393 11.1208628 -43 2 C-28.81 2 -14.62 2 0 2 C0 1.34 0 0.68 0 0 Z " fill="#A391C2" transform="translate(296,171)"/>
<path d="M0 0 C0.495 1.485 0.495 1.485 1 3 C0.34 3 -0.32 3 -1 3 C-1 3.99 -1 4.98 -1 6 C0.10512939 5.96970703 1.21025879 5.93941406 2.34887695 5.90820312 C6.44701032 5.79597576 10.54515814 5.68428374 14.64331055 5.57275391 C16.41740308 5.52439759 18.19149166 5.47589588 19.96557617 5.42724609 C22.51480094 5.35736525 25.06403945 5.28800639 27.61328125 5.21875 C28.40712723 5.19687622 29.20097321 5.17500244 30.01887512 5.15246582 C33.01365561 5.07150104 36.00396466 5 39 5 C39.495 5.99 39.495 5.99 40 7 C26.14 7 12.28 7 -2 7 C-2 21.52 -2 36.04 -2 51 C5.92 51 13.84 51 22 51 C21.09262391 55.53688047 19.73558574 59.50108963 18 63.75 C17.72671875 64.43449219 17.4534375 65.11898437 17.171875 65.82421875 C15.13600498 70.86399502 15.13600498 70.86399502 14 72 C12.52645652 72.09304018 11.04849409 72.11746265 9.57202148 72.11352539 C8.63112167 72.11344986 7.69022186 72.11337433 6.72080994 72.11329651 C5.69790359 72.10813522 4.67499725 72.10297394 3.62109375 72.09765625 C2.57929459 72.0962413 1.53749542 72.09482635 0.46412659 72.09336853 C-2.87811094 72.0877508 -6.22028257 72.0751953 -9.5625 72.0625 C-11.82226466 72.05748728 -14.08203037 72.05292398 -16.34179688 72.04882812 C-21.89455391 72.03777561 -27.44727225 72.02102024 -33 72 C-31.90800985 68.62361665 -30.79300925 65.34079731 -29.2734375 62.1328125 C-28.9640625 61.47539062 -28.6546875 60.81796875 -28.3359375 60.140625 C-28.01882813 59.47546875 -27.70171875 58.8103125 -27.375 58.125 C-27.05015625 57.43664062 -26.7253125 56.74828125 -26.390625 56.0390625 C-25.59676528 54.35794781 -24.79880442 52.67877079 -24 51 C-20.04 51 -16.08 51 -12 51 C-12.11601562 49.31777344 -12.23203125 47.63554687 -12.3515625 45.90234375 C-13.13211769 29.27724762 -11.10944162 15.29152909 -2 1 C-1.34 0.67 -0.68 0.34 0 0 Z " fill="#37383C" transform="translate(492,261)"/>
<path d="M0 0 C16.5 0 33 0 50 0 C50 7.59 50 15.18 50 23 C33.5 23 17 23 0 23 C0 15.41 0 7.82 0 0 Z " fill="#F9F3AC" transform="translate(1139,511)"/>
<path d="M0 0 C2.31 0 4.62 0 7 0 C7 3.63 7 7.26 7 11 C11.62 11 16.24 11 21 11 C21 7.37 21 3.74 21 0 C23.31 0 25.62 0 28 0 C28 9.9 28 19.8 28 30 C25.69 30 23.38 30 21 30 C21 25.71 21 21.42 21 17 C16.38 17 11.76 17 7 17 C7 21.29 7 25.58 7 30 C4.69 30 2.38 30 0 30 C0 20.1 0 10.2 0 0 Z " fill="#424346" transform="translate(98,139)"/>
<path d="M0 0 C7.26 0 14.52 0 22 0 C22 1.65 22 3.3 22 5 C17.05 5 12.1 5 7 5 C7 7.31 7 9.62 7 12 C11.62 12 16.24 12 21 12 C21 13.65 21 15.3 21 17 C16.38 17 11.76 17 7 17 C7 19.31 7 21.62 7 24 C12.28 24 17.56 24 23 24 C23 25.98 23 27.96 23 30 C15.41 30 7.82 30 0 30 C0 20.1 0 10.2 0 0 Z " fill="#38383B" transform="translate(133,139)"/>
<path d="M0 0 C3.72994296 -0.10802731 7.45675221 -0.18733597 11.1875 -0.25 C12.77014648 -0.30027344 12.77014648 -0.30027344 14.38476562 -0.3515625 C22.21192612 -0.45032793 22.21192612 -0.45032793 26.19921875 1.828125 C28 4 28 4 28.625 7 C28 10 28 10 26.19921875 12.171875 C21.32043953 14.95974884 16.69757374 14.42502983 11.1875 14.25 C10.11306641 14.23195313 9.03863281 14.21390625 7.93164062 14.1953125 C5.28737679 14.14830337 2.64357317 14.07656366 0 14 C0 9.38 0 4.76 0 0 Z " fill="#FBFBFB" transform="translate(1141,392)"/>
<path d="M0 0 C16.5 0 33 0 50 0 C50 16.17 50 32.34 50 49 C33.5 49 17 49 0 49 C0 32.83 0 16.66 0 0 Z M2 2 C2 17.18 2 32.36 2 48 C17.18 48 32.36 48 48 48 C48 32.82 48 17.64 48 2 C32.82 2 17.64 2 2 2 Z " fill="#EFE974" transform="translate(1139,455)"/>
<path d="M0 0 C16.5 0 33 0 50 0 C50 16.17 50 32.34 50 49 C33.5 49 17 49 0 49 C0 32.83 0 16.66 0 0 Z M2 2 C2 17.18 2 32.36 2 48 C17.18 48 32.36 48 48 48 C48 32.82 48 17.64 48 2 C32.82 2 17.64 2 2 2 Z " fill="#F3E27A" transform="translate(1027,455)"/>
<path d="M0 0 C16.5 0 33 0 50 0 C50 16.17 50 32.34 50 49 C33.5 49 17 49 0 49 C0 32.83 0 16.66 0 0 Z M2 1 C2 16.18 2 31.36 2 47 C17.18 47 32.36 47 48 47 C48 31.82 48 16.64 48 1 C32.82 1 17.64 1 2 1 Z " fill="#F2CF87" transform="translate(915,400)"/>
<path d="M0 0 C16.5 0 33 0 50 0 C50 16.17 50 32.34 50 49 C33.5 49 17 49 0 49 C0 32.83 0 16.66 0 0 Z M2 1 C2 16.18 2 31.36 2 47 C17.18 47 32.36 47 48 47 C48 31.82 48 16.64 48 1 C32.82 1 17.64 1 2 1 Z " fill="#F0CC85" transform="translate(915,344)"/>
<path d="M0 0 C16.5 0 33 0 50 0 C50 16.17 50 32.34 50 49 C33.5 49 17 49 0 49 C0 32.83 0 16.66 0 0 Z M2 2 C2 17.18 2 32.36 2 48 C17.18 48 32.36 48 48 48 C48 32.82 48 17.64 48 2 C32.82 2 17.64 2 2 2 Z " fill="#5B79A5" transform="translate(1192,287)"/>
<path d="M0 0 C2.72943537 -0.05416741 5.45778564 -0.09375225 8.1875 -0.125 C9.34088867 -0.15013672 9.34088867 -0.15013672 10.51757812 -0.17578125 C14.78890451 -0.212445 18.14528592 -0.07617368 22 2 C24 4 24 4 24.375 7.4375 C24 11 24 11 22.27441406 12.7043457 C19.66581488 14.1903736 18.21298557 14.35024972 15.234375 14.29296875 C14.34492187 14.28330078 13.45546875 14.27363281 12.5390625 14.26367188 C11.61867188 14.23853516 10.69828125 14.21339844 9.75 14.1875 C8.34621094 14.16719727 8.34621094 14.16719727 6.9140625 14.14648438 C4.60912779 14.11120476 2.30448995 14.05739966 0 14 C0 9.38 0 4.76 0 0 Z " fill="#F7F7F7" transform="translate(1141,363)"/>
<path d="M0 0 C8.58 0 17.16 0 26 0 C26 1.65 26 3.3 26 5 C22.7 5 19.4 5 16 5 C16 13.25 16 21.5 16 30 C13.69 30 11.38 30 9 30 C9 21.75 9 13.5 9 5 C6.03 5 3.06 5 0 5 C0 3.35 0 1.7 0 0 Z " fill="#36373A" transform="translate(69,139)"/>
<path d="M0 0 C16.17 0 32.34 0 49 0 C49.96555925 2.89667774 50.09561506 4.56672261 50.02172852 7.56323242 C50.00130493 8.49679565 49.98088135 9.43035889 49.95983887 10.39221191 C49.9331311 11.37008667 49.90642334 12.34796143 49.87890625 13.35546875 C49.85824097 14.25672485 49.83757568 15.15798096 49.81628418 16.08654785 C49.73751192 19.45367315 49.6494466 22.82057586 49.5625 26.1875 C49.376875 33.715625 49.19125 41.24375 49 49 C32.83 49 16.66 49 0 49 C0 32.83 0 16.66 0 0 Z M2 1 C2 16.18 2 31.36 2 47 C9.033125 47.020625 16.06625 47.04125 23.3125 47.0625 C26.6388855 47.07615601 26.6388855 47.07615601 30.0324707 47.09008789 C31.7885736 47.09300828 33.54467718 47.09555655 35.30078125 47.09765625 C36.6704303 47.1053302 36.6704303 47.1053302 38.06774902 47.11315918 C38.94040405 47.11328003 39.81305908 47.11340088 40.7121582 47.11352539 C41.46938675 47.115746 42.2266153 47.11796661 43.00679016 47.12025452 C45.21036247 47.07350231 45.21036247 47.07350231 48 46 C48 31.15 48 16.3 48 1 C32.82 1 17.64 1 2 1 Z " fill="#E09D7D" transform="translate(131,238)"/>
<path d="M0 0 C16.17 0 32.34 0 49 0 C49 16.17 49 32.34 49 49 C32.83 49 16.66 49 0 49 C0 32.83 0 16.66 0 0 Z M2 1 C2 16.18 2 31.36 2 47 C12.828125 47.061875 12.828125 47.061875 23.875 47.125 C26.15390137 47.14320801 28.43280273 47.16141602 30.78076172 47.18017578 C32.58040125 47.18601518 34.3800434 47.19111204 36.1796875 47.1953125 C37.11949463 47.20554443 38.05930176 47.21577637 39.02758789 47.22631836 C39.9206665 47.22656006 40.81374512 47.22680176 41.73388672 47.22705078 C42.89970779 47.23371262 42.89970779 47.23371262 44.08908081 47.24050903 C46.24073389 47.16811395 46.24073389 47.16811395 48 45 C48.29136164 43.02060859 48.29136164 43.02060859 48.22705078 40.73388672 C48.22680908 39.84080811 48.22656738 38.94772949 48.22631836 38.02758789 C48.21608643 37.08778076 48.20585449 36.14797363 48.1953125 35.1796875 C48.19329834 34.31674072 48.19128418 33.45379395 48.18920898 32.56469727 C48.17872856 29.33474427 48.15080605 26.10486691 48.125 22.875 C48.063125 12.046875 48.063125 12.046875 48 1 C32.82 1 17.64 1 2 1 Z " fill="#D5706E" transform="translate(411,344)"/>
<path d="M0 0 C16.17 0 32.34 0 49 0 C49 16.17 49 32.34 49 49 C32.83 49 16.66 49 0 49 C0 32.83 0 16.66 0 0 Z M2 3 C1.90204689 4.37609882 1.87201912 5.75713882 1.87060547 7.13671875 C1.86745331 8.01432861 1.86430115 8.89193848 1.86105347 9.79614258 C1.8630777 10.75029053 1.86510193 11.70443848 1.8671875 12.6875 C1.86623077 13.66033936 1.86527405 14.63317871 1.86428833 15.63549805 C1.86360642 17.696778 1.86546147 19.75806008 1.86962891 21.81933594 C1.874977 24.98637688 1.86968428 28.153276 1.86328125 31.3203125 C1.86394203 33.31770865 1.86522319 35.31510471 1.8671875 37.3125 C1.86516327 38.26664795 1.86313904 39.2207959 1.86105347 40.20385742 C1.86420563 41.08146729 1.86735779 41.95907715 1.87060547 42.86328125 C1.87140106 43.63969971 1.87219666 44.41611816 1.87301636 45.21606445 C1.80596458 47.02433662 1.80596458 47.02433662 3 48 C4.41225046 48.0928726 5.82908934 48.11746772 7.24438477 48.11352539 C8.15788696 48.11340454 9.07138916 48.11328369 10.01257324 48.11315918 C11.46234558 48.10548523 11.46234558 48.10548523 12.94140625 48.09765625 C13.82501831 48.09664917 14.70863037 48.09564209 15.61901855 48.09460449 C18.93352549 48.08935531 22.24801399 48.07539417 25.5625 48.0625 C36.6690625 48.0315625 36.6690625 48.0315625 48 48 C48 32.82 48 17.64 48 2 C40.595625 1.979375 33.19125 1.95875 25.5625 1.9375 C23.2222876 1.928396 20.8820752 1.91929199 18.47094727 1.90991211 C16.62776751 1.90699306 14.78458712 1.90444448 12.94140625 1.90234375 C11.97489136 1.89722778 11.00837646 1.89211182 10.01257324 1.88684082 C9.09907104 1.88671997 8.18556885 1.88659912 7.24438477 1.88647461 C6.44718521 1.884254 5.64998566 1.88203339 4.82862854 1.87974548 C2.98077719 1.79949544 2.98077719 1.79949544 2 3 Z " fill="#D15B5C" transform="translate(523,65)"/>
<path d="M0 0 C16.17 0 32.34 0 49 0 C49 16.17 49 32.34 49 49 C32.83 49 16.66 49 0 49 C0 32.83 0 16.66 0 0 Z M2 2 C2 17.18 2 32.36 2 48 C17.18 48 32.36 48 48 48 C48 32.82 48 17.64 48 2 C32.82 2 17.64 2 2 2 Z " fill="#ECBA75" transform="translate(971,455)"/>
<path d="M0 0 C16.17 0 32.34 0 49 0 C49 16.17 49 32.34 49 49 C32.83 49 16.66 49 0 49 C0 32.83 0 16.66 0 0 Z M2 1 C2 16.18 2 31.36 2 47 C17.18 47 32.36 47 48 47 C48 31.82 48 16.64 48 1 C32.82 1 17.64 1 2 1 Z " fill="#D4696A" transform="translate(579,344)"/>
<path d="M0 0 C16.17 0 32.34 0 49 0 C49 16.17 49 32.34 49 49 C32.83 49 16.66 49 0 49 C0 32.83 0 16.66 0 0 Z M2 2 C2 17.18 2 32.36 2 48 C17.18 48 32.36 48 48 48 C48 32.82 48 17.64 48 2 C32.82 2 17.64 2 2 2 Z " fill="#D9805C" transform="translate(579,65)"/>
<path d="M0 0 C16.17 0 32.34 0 49 0 C49 16.17 49 32.34 49 49 C32.83 49 16.66 49 0 49 C0 32.83 0 16.66 0 0 Z M1 1 C1.144375 8.404375 1.28875 15.80875 1.4375 23.4375 C1.48060303 25.7777124 1.52370605 28.1179248 1.56811523 30.52905273 C1.60622079 32.37224112 1.64468842 34.21542207 1.68359375 36.05859375 C1.70006958 37.02510864 1.71654541 37.99162354 1.73352051 38.98742676 C1.75370239 39.90092896 1.77388428 40.81443115 1.79467773 41.75561523 C1.81022202 42.55281479 1.8257663 43.35001434 1.84178162 44.17137146 C1.80400665 46.01851382 1.80400665 46.01851382 3 47 C4.41225046 47.0928726 5.82908934 47.11746772 7.24438477 47.11352539 C8.15788696 47.11340454 9.07138916 47.11328369 10.01257324 47.11315918 C11.46234558 47.10548523 11.46234558 47.10548523 12.94140625 47.09765625 C13.82501831 47.09664917 14.70863037 47.09564209 15.61901855 47.09460449 C18.93352549 47.08935531 22.24801399 47.07539417 25.5625 47.0625 C36.6690625 47.0315625 36.6690625 47.0315625 48 47 C48 31.82 48 16.64 48 1 C32.49 1 16.98 1 1 1 Z " fill="#E3A394" transform="translate(747,344)"/>
<path d="M0 0 C16.83 0 33.66 0 51 0 C51 16.83 51 33.66 51 51 C50.67 51 50.34 51 50 51 C50 34.83 50 18.66 50 2 C33.83 2 17.66 2 1 2 C1 18.83 1 35.66 1 53 C0.34 53 -0.32 53 -1 53 C-1.94113051 50.17660846 -2.13130163 48.42487791 -2.14526367 45.50024414 C-2.15164352 44.59242691 -2.15802338 43.68460968 -2.16459656 42.74928284 C-2.16570938 41.77112106 -2.1668222 40.79295929 -2.16796875 39.78515625 C-2.17129715 38.77786972 -2.17462555 37.77058319 -2.17805481 36.73277283 C-2.18311866 34.6018825 -2.1854633 32.47098423 -2.18530273 30.34008789 C-2.18748907 27.07880607 -2.20565021 23.81786257 -2.22460938 20.55664062 C-2.22754342 18.48698032 -2.22952814 16.41731842 -2.23046875 14.34765625 C-2.23765427 13.37151871 -2.24483978 12.39538116 -2.25224304 11.3896637 C-2.24916641 10.47869431 -2.24608978 9.56772491 -2.24291992 8.62915039 C-2.24434494 7.82989639 -2.24576996 7.0306424 -2.24723816 6.20716858 C-2 4 -2 4 0 0 Z " fill="#E7F5E8" transform="translate(1060,183)"/>
<path d="M0 0 C0.66 0 1.32 0 2 0 C2 16.17 2 32.34 2 49 C18.5 49 35 49 52 49 C52 32.83 52 16.66 52 0 C52.33 0 52.66 0 53 0 C53.02526787 7.10244999 53.04283201 14.20488848 53.05493164 21.30737305 C53.05997349 23.72567172 53.06680678 26.14396733 53.07543945 28.56225586 C53.08751157 32.02979283 53.09322963 35.49728966 53.09765625 38.96484375 C53.10281754 40.05337143 53.10797882 41.14189911 53.11329651 42.26341248 C53.11337204 43.26437454 53.11344757 44.26533661 53.11352539 45.29663086 C53.115746 46.18265488 53.11796661 47.06867889 53.12025452 47.98155212 C53 50 53 50 52 51 C50.4093669 51.09854422 48.81438523 51.12798694 47.22070312 51.12939453 C45.69407043 51.13412277 45.69407043 51.13412277 44.13659668 51.13894653 C43.02933228 51.1369223 41.92206787 51.13489807 40.78125 51.1328125 C39.65303833 51.13376923 38.52482666 51.13472595 37.36242676 51.13571167 C34.97159774 51.13639368 32.58076689 51.13453797 30.18994141 51.13037109 C26.51590849 51.12502316 22.84199783 51.13031543 19.16796875 51.13671875 C16.85156223 51.13605797 14.53515578 51.13477682 12.21875 51.1328125 C11.1114856 51.13483673 10.00422119 51.13686096 8.86340332 51.13894653 C7.84564819 51.13579437 6.82789307 51.13264221 5.77929688 51.12939453 C4.87852417 51.12859894 3.97775146 51.12780334 3.04968262 51.12698364 C1 51 1 51 0 50 C-0.09326716 48.43452952 -0.11745582 46.86487228 -0.11352539 45.29663086 C-0.11344986 44.29566879 -0.11337433 43.29470673 -0.11329651 42.26341248 C-0.10813522 41.1748848 -0.10297394 40.08635712 -0.09765625 38.96484375 C-0.0962413 37.85645645 -0.09482635 36.74806915 -0.09336853 35.60609436 C-0.08775033 32.04986931 -0.07519475 28.49370617 -0.0625 24.9375 C-0.05748734 22.53320403 -0.05292403 20.12890708 -0.04882812 17.72460938 C-0.03777499 11.81638496 -0.02101917 5.9081969 0 0 Z " fill="#FEFBE4" transform="translate(913,344)"/>
<path d="M0 0 C0.66 0 1.32 0 2 0 C2 16.17 2 32.34 2 49 C18.5 49 35 49 52 49 C52 33.16 52 17.32 52 1 C52.33 1 52.66 1 53 1 C53 17.17 53 33.34 53 50 C50.54557152 51.22721424 48.94282486 51.12691608 46.19897461 51.12939453 C45.20131577 51.13254669 44.20365692 51.13569885 43.17576599 51.13894653 C41.55542198 51.13591019 41.55542198 51.13591019 39.90234375 51.1328125 C38.79774307 51.13376923 37.6931424 51.13472595 36.55506897 51.13571167 C34.21729475 51.13639301 31.87951864 51.13454196 29.54174805 51.13037109 C25.94901312 51.12501716 22.35640292 51.1303203 18.76367188 51.13671875 C16.49739556 51.13605806 14.23111931 51.13477709 11.96484375 51.1328125 C10.88259018 51.13483673 9.80033661 51.13686096 8.68528748 51.13894653 C7.69078079 51.13579437 6.69627411 51.13264221 5.67163086 51.12939453 C4.79163925 51.12859894 3.91164764 51.12780334 3.00498962 51.12698364 C1 51 1 51 0 50 C-0.09326716 48.43452952 -0.11745582 46.86487228 -0.11352539 45.29663086 C-0.11344986 44.29566879 -0.11337433 43.29470673 -0.11329651 42.26341248 C-0.10813522 41.1748848 -0.10297394 40.08635712 -0.09765625 38.96484375 C-0.0962413 37.85645645 -0.09482635 36.74806915 -0.09336853 35.60609436 C-0.08775033 32.04986931 -0.07519475 28.49370617 -0.0625 24.9375 C-0.05748734 22.53320403 -0.05292403 20.12890708 -0.04882812 17.72460938 C-0.03777499 11.81638496 -0.02101917 5.9081969 0 0 Z " fill="#FDFCDB" transform="translate(1025,455)"/>
<path d="M0 0 C2.31 0 4.62 0 7 0 C7 9.9 7 19.8 7 30 C4.69 30 2.38 30 0 30 C0 25.71 0 21.42 0 17 C-1.98 17 -3.96 17 -6 17 C-5.67 15.35 -5.34 13.7 -5 12 C-3.35 12 -1.7 12 0 12 C0 8.04 0 4.08 0 0 Z " fill="#37383B" transform="translate(119,139)"/>
<path d="M0 0 C16.17 0 32.34 0 49 0 C49 16.17 49 32.34 49 49 C32.83 49 16.66 49 0 49 C-0.4375 36.75 -0.4375 36.75 -0.56811523 32.96777344 C-0.80203456 26.67123881 -1.19179554 20.46752919 -1.99633789 14.21582031 C-2.00178706 9.43072023 -0.85598528 4.70791904 0 0 Z M1 2 C0.90704185 3.44289787 0.88253487 4.89029785 0.88647461 6.33618164 C0.88659546 7.26998657 0.88671631 8.2037915 0.88684082 9.16589355 C0.89195679 10.15400024 0.89707275 11.14210693 0.90234375 12.16015625 C0.90335083 13.06342651 0.90435791 13.96669678 0.90539551 14.89733887 C0.91064488 18.28573874 0.92460602 21.67412059 0.9375 25.0625 C0.958125 32.631875 0.97875 40.20125 1 48 C16.51 48 32.02 48 48 48 C48.020625 40.430625 48.04125 32.86125 48.0625 25.0625 C48.071604 22.67008057 48.08070801 20.27766113 48.09008789 17.81274414 C48.09300692 15.92854875 48.09555551 14.04435273 48.09765625 12.16015625 C48.10277222 11.17204956 48.10788818 10.18394287 48.11315918 9.16589355 C48.11328003 8.23208862 48.11340088 7.29828369 48.11352539 6.33618164 C48.115746 5.52121719 48.11796661 4.70625275 48.12025452 3.86659241 C48.20528245 1.98522144 48.20528245 1.98522144 47 1 C45.5932478 0.90195149 44.18164864 0.87201814 42.77148438 0.87060547 C41.87385376 0.86745331 40.97622314 0.86430115 40.0513916 0.86105347 C39.07536987 0.8630777 38.09934814 0.86510193 37.09375 0.8671875 C36.0987146 0.86623077 35.1036792 0.86527405 34.07849121 0.86428833 C31.97013282 0.8636064 29.86177235 0.86546156 27.75341797 0.86962891 C24.51394973 0.87497697 21.27462015 0.86968433 18.03515625 0.86328125 C15.99218719 0.86394203 13.94921822 0.86522319 11.90625 0.8671875 C10.44221741 0.86415115 10.44221741 0.86415115 8.9486084 0.86105347 C7.60216248 0.86578171 7.60216248 0.86578171 6.22851562 0.87060547 C5.0372406 0.87179886 5.0372406 0.87179886 3.82189941 0.87301636 C1.98010197 0.80115454 1.98010197 0.80115454 1 2 Z " fill="#65AE77" transform="translate(948,185)"/>
<path d="M0 0 C2.23750211 2.23750211 2.84529415 3.84385209 3.9453125 6.7890625 C4.29980469 7.73007812 4.65429688 8.67109375 5.01953125 9.640625 C5.38433594 10.62546875 5.74914063 11.6103125 6.125 12.625 C6.68380859 14.11386719 6.68380859 14.11386719 7.25390625 15.6328125 C8.17412423 18.08672711 9.08769211 20.54313363 10 23 C4.06 23 -1.88 23 -8 23 C-7.29823112 19.4911556 -6.65218934 16.81189669 -5.37109375 13.57421875 C-5.05849609 12.77822266 -4.74589844 11.98222656 -4.42382812 11.16210938 C-3.9355957 9.93717773 -3.9355957 9.93717773 -3.4375 8.6875 C-3.10814453 7.85154297 -2.77878906 7.01558594 -2.43945312 6.15429688 C-1.63001123 4.10136454 -0.81676543 2.05002714 0 0 Z " fill="#F8F8F8" transform="translate(1072,369)"/>
<path d="M0 0 C17.16 0 34.32 0 52 0 C52.020625 8.394375 52.04125 16.78875 52.0625 25.4375 C52.071604 28.09095459 52.08070801 30.74440918 52.09008789 33.47827148 C52.09300686 35.56754506 52.09555546 37.65681919 52.09765625 39.74609375 C52.10277222 40.84215942 52.10788818 41.9382251 52.11315918 43.06750488 C52.11334045 44.62048279 52.11334045 44.62048279 52.11352539 46.20483398 C52.115746 47.10862289 52.11796661 48.0124118 52.12025452 48.94358826 C52 51 52 51 51 52 C49.40389018 52.09333705 47.80366572 52.11745372 46.20483398 52.11352539 C45.18385117 52.11344986 44.16286835 52.11337433 43.11094666 52.11329651 C42.0005452 52.10813522 40.89014374 52.10297394 39.74609375 52.09765625 C38.61551041 52.0962413 37.48492706 52.09482635 36.32008362 52.09336853 C32.69252935 52.08775019 29.06503576 52.07519458 25.4375 52.0625 C22.98502693 52.05748736 20.5325529 52.05292405 18.08007812 52.04882812 C12.05336455 52.0377748 6.02668661 52.02101884 0 52 C0 51.67 0 51.34 0 51 C16.5 51 33 51 50 51 C49.67 34.83 49.34 18.66 49 2 C24.745 1.505 24.745 1.505 0 1 C0 0.67 0 0.34 0 0 Z " fill="#FEFEE4" transform="translate(1195,398)"/>
<path d="M0 0 C16.17 0 32.34 0 49 0 C49 1.98 49 3.96 49 6 C48.34 5.01 47.68 4.02 47 3 C44.948375 2.52511301 44.948375 2.52511301 42.55029297 2.56762695 C41.61660889 2.54768677 40.6829248 2.52774658 39.72094727 2.50720215 C38.73795654 2.50095825 37.75496582 2.49471436 36.7421875 2.48828125 C35.83992432 2.47164429 34.93766113 2.45500732 34.00805664 2.43786621 C30.63060935 2.37993717 27.25275977 2.34778253 23.875 2.3125 C16.32625 2.209375 8.7775 2.10625 1 2 C1 17.18 1 32.36 1 48 C16.84 47.67 32.68 47.34 49 47 C49 47.66 49 48.32 49 49 C32.83 49 16.66 49 0 49 C0 32.83 0 16.66 0 0 Z " fill="#728CB7" transform="translate(1062,73)"/>
<path d="M0 0 C0.99 0 1.98 0 3 0 C3 16.17 3 32.34 3 49 C-14.49 49 -31.98 49 -50 49 C-50 48.67 -50 48.34 -50 48 C-33.5 48 -17 48 0 48 C0 32.16 0 16.32 0 0 Z " fill="#DFDE87" transform="translate(1242,288)"/>
<path d="M0 0 C0.33 0.99 0.66 1.98 1 3 C0.34 3 -0.32 3 -1 3 C-1 3.99 -1 4.98 -1 6 C0.10512939 5.96970703 1.21025879 5.93941406 2.34887695 5.90820312 C6.44701032 5.79597576 10.54515814 5.68428374 14.64331055 5.57275391 C16.41740308 5.52439759 18.19149166 5.47589588 19.96557617 5.42724609 C22.51480094 5.35736525 25.06403945 5.28800639 27.61328125 5.21875 C28.40712723 5.19687622 29.20097321 5.17500244 30.01887512 5.15246582 C33.01365561 5.07150104 36.00396466 5 39 5 C39.495 5.99 39.495 5.99 40 7 C26.14 7 12.28 7 -2 7 C-2 13.6 -2 20.2 -2 27 C-2.66 26.01 -3.32 25.02 -4 24 C-7.09081648 24.89741863 -7.09081648 24.89741863 -10 27 C-10.63321903 29.98473628 -10.88542651 32.202912 -10.875 35.1875 C-10.895625 35.93708984 -10.91625 36.68667969 -10.9375 37.45898438 C-10.98454518 39.30550787 -10.99574887 41.15288219 -11 43 C-11.33 43 -11.66 43 -12 43 C-13.63398745 27.4408084 -10.03627381 14.49888381 -2 1 C-1.34 0.67 -0.68 0.34 0 0 Z " fill="#4F4B4B" transform="translate(492,261)"/>
<path d="M0 0 C0.33 0 0.66 0 1 0 C1 11.22 1 22.44 1 34 C17.17 34 33.34 34 50 34 C50 23.77 50 13.54 50 3 C50.66 3.33 51.32 3.66 52 4 C52 14.23 52 24.46 52 35 C44.63098356 35.02291678 37.26209005 35.04284176 29.89306641 35.05493164 C27.38459861 35.05997003 24.87613376 35.06680084 22.36767578 35.07543945 C18.7685473 35.08752661 15.16945753 35.09323315 11.5703125 35.09765625 C9.87964157 35.10539818 9.87964157 35.10539818 8.15481567 35.11329651 C7.11388763 35.11337204 6.07295959 35.11344757 5.00048828 35.11352539 C4.08115509 35.115746 3.1618219 35.11796661 2.21463013 35.12025452 C0 35 0 35 -2 34 C-1.67 27.07 -1.34 20.14 -1 13 C-1.66 13 -2.32 13 -3 13 C-3.33 13.66 -3.66 14.32 -4 15 C-4.66 15 -5.32 15 -6 15 C-4.40109514 9.80355921 -2.25861997 4.93387858 0 0 Z " fill="#614438" transform="translate(130,253)"/>
<path d="M0 0 C2.5594282 3.41257094 3.59672757 5.16137948 4.75 9.0625 C5.14445312 10.34833984 5.14445312 10.34833984 5.546875 11.66015625 C6 14 6 14 5 17 C4.01 17.66 3.02 18.32 2 19 C1.78849981 21.32209582 2.00389837 23.4867982 2.1875 25.80859375 C2 28 2 28 0.5 29.78515625 C0.005 30.18605469 -0.49 30.58695313 -1 31 C-1 30.34 -1 29.68 -1 29 C-10.9 29.33 -20.8 29.66 -31 30 C-31.33 31.32 -31.66 32.64 -32 34 C-32.33 34.66 -32.66 35.32 -33 36 C-36 31.375 -36 31.375 -36 28 C-24.12 28 -12.24 28 0 28 C0 18.76 0 9.52 0 0 Z " fill="#797882" transform="translate(351,188)"/>
<path d="M0 0 C15.51 0 31.02 0 47 0 C47 4.62 47 9.24 47 14 C46.67 14 46.34 14 46 14 C46 9.71 46 5.42 46 1 C31.81 1 17.62 1 3 1 C3 15.19 3 29.38 3 44 C2.67 44 2.34 44 2 44 C1.98018066 43.43079834 1.96036133 42.86159668 1.93994141 42.27514648 C1.84388242 39.66218288 1.73453593 37.04993198 1.625 34.4375 C1.5940625 33.54224609 1.563125 32.64699219 1.53125 31.72460938 C1.30127783 26.49274255 0.67595556 21.96655124 -1 17 C-0.67 17 -0.34 17 0 17 C0 11.39 0 5.78 0 0 Z " fill="#8B99B6" transform="translate(304,172)"/>
<path d="M0 0 C2.31 0 4.62 0 7 0 C4 2 4 2 2 3 C2 17.85 2 32.7 2 48 C24.77 47.505 24.77 47.505 48 47 C48 44.03 48 41.06 48 38 C48.33 38 48.66 38 49 38 C49 41.63 49 45.26 49 49 C32.83 49 16.66 49 0 49 C0 32.83 0 16.66 0 0 Z " fill="#5B805C" transform="translate(1061,185)"/>
<path d="M0 0 C16.5 0 33 0 50 0 C50 0.99 50 1.98 50 3 C33.5 3 17 3 0 3 C0 2.01 0 1.02 0 0 Z " fill="#FCF2D5" transform="translate(915,397)"/>
<path d="M0 0 C15.84 0.33 31.68 0.66 48 1 C48 1.66 48 2.32 48 3 C31.83 3 15.66 3 -1 3 C-0.67 2.01 -0.34 1.02 0 0 Z " fill="#FEEEE7" transform="translate(76,180)"/>
<path d="M0 0 C0.99 0.495 0.99 0.495 2 1 C1.98839844 2.22976562 1.97679687 3.45953125 1.96484375 4.7265625 C1.95545978 6.35937347 1.94636023 7.9921861 1.9375 9.625 C1.92912109 10.43324219 1.92074219 11.24148437 1.91210938 12.07421875 C1.90888672 12.86699219 1.90566406 13.65976563 1.90234375 14.4765625 C1.89710693 15.19924316 1.89187012 15.92192383 1.88647461 16.66650391 C2.02265714 19.46571381 2.53926845 22.2356107 3 25 C22.8 25.495 22.8 25.495 43 26 C43 24.02 43 22.04 43 20 C43.33 20 43.66 20 44 20 C44 22.31 44 24.62 44 27 C39.66273134 27.16999071 35.32523464 27.33024541 30.98730469 27.48217773 C29.51715853 27.53495797 28.04709902 27.59022115 26.57714844 27.64819336 C24.44224779 27.73192923 22.30717619 27.80618591 20.171875 27.87890625 C18.8940918 27.9260376 17.61630859 27.97316895 16.29980469 28.02172852 C10.85594218 27.99421865 5.42512736 27.45209395 0 27 C0 18.09 0 9.18 0 0 Z " fill="#A092B5" transform="translate(252,189)"/>
<path d="M0 0 C0.33 0.99 0.66 1.98 1 3 C0.34 3 -0.32 3 -1 3 C-1 3.99 -1 4.98 -1 6 C0.10512939 5.96970703 1.21025879 5.93941406 2.34887695 5.90820312 C6.44701032 5.79597576 10.54515814 5.68428374 14.64331055 5.57275391 C16.41740308 5.52439759 18.19149166 5.47589588 19.96557617 5.42724609 C22.51480094 5.35736525 25.06403945 5.28800639 27.61328125 5.21875 C28.40712723 5.19687622 29.20097321 5.17500244 30.01887512 5.15246582 C33.01365561 5.07150104 36.00396466 5 39 5 C39.495 5.99 39.495 5.99 40 7 C26.14 7 12.28 7 -2 7 C-2.33 9.64 -2.66 12.28 -3 15 C-4.32 14.34 -5.64 13.68 -7 13 C-6.21658881 11.01755108 -5.42302514 9.03911141 -4.625 7.0625 C-4.18414062 5.96035156 -3.74328125 4.85820312 -3.2890625 3.72265625 C-2 1 -2 1 0 0 Z " fill="#565256" transform="translate(492,261)"/>
<path d="M0 0 C15.84 0 31.68 0 48 0 C48 0.33 48 0.66 48 1 C38.1 1.495 38.1 1.495 28 2 C27.01 4.64 26.02 7.28 25 10 C24.67 8.68 24.34 7.36 24 6 C23.34 5.01 22.68 4.02 22 3 C22.33 2.67 22.66 2.34 23 2 C11.615 1.505 11.615 1.505 0 1 C0 0.67 0 0.34 0 0 Z " fill="#4C403C" transform="translate(132,288)"/>
<path d="M0 0 C0.66 0 1.32 0 2 0 C2.99 2.31 3.98 4.62 5 7 C-7.87 7 -20.74 7 -34 7 C-34 6.67 -34 6.34 -34 6 C-23.77 6 -13.54 6 -3 6 C-2.67 4.68 -2.34 3.36 -2 2 C-1.34 1.34 -0.68 0.68 0 0 Z " fill="#A09FAA" transform="translate(340,165)"/>
<path d="M0 0 C1.32 0.33 2.64 0.66 4 1 C3.34 1.66 2.68 2.32 2 3 C1.67022394 5.01833943 1.67022394 5.01833943 1.68115234 7.35791016 C1.66128265 8.25869293 1.64141296 9.15947571 1.62094116 10.08755493 C1.60361435 11.54855118 1.60361435 11.54855118 1.5859375 13.0390625 C1.56657135 14.03505463 1.5472052 15.03104675 1.5272522 16.05722046 C1.46735035 19.2463925 1.42102862 22.43560043 1.375 25.625 C1.33682999 27.78387013 1.29777884 29.94272488 1.2578125 32.1015625 C1.1616403 37.40090534 1.07662411 42.70034043 1 48 C0.67 48 0.34 48 0 48 C0 32.16 0 16.32 0 0 Z " fill="#52609A" transform="translate(872,23)"/>
<path d="M0 0 C1.35862973 3.90480249 0.89469712 7.7101776 0.5625 11.75 C0.51029297 12.44738281 0.45808594 13.14476562 0.40429688 13.86328125 C0.27525928 15.57596203 0.13840386 17.28805066 0 19 C-0.33 19 -0.66 19 -1 19 C-1 17.02 -1 15.04 -1 13 C-1.66 13 -2.32 13 -3 13 C-3.33 13.66 -3.66 14.32 -4 15 C-4.66 15 -5.32 15 -6 15 C-4.40109514 9.80355921 -2.25861997 4.93387858 0 0 Z " fill="#645651" transform="translate(130,253)"/>
<path d="M0 0 C0 0.99 0 1.98 0 3 C-0.97195313 3.32613281 -1.94390625 3.65226562 -2.9453125 3.98828125 C-6.41319298 5.75910308 -6.41319298 5.75910308 -6.8046875 9.79296875 C-6.85768559 11.25704106 -6.88011798 12.7224777 -6.875 14.1875 C-6.895625 14.93708984 -6.91625 15.68667969 -6.9375 16.45898438 C-6.98454518 18.30550787 -6.99574887 20.15288219 -7 22 C-7.33 22 -7.66 22 -8 22 C-8.14554346 18.91716557 -8.23413821 15.83521561 -8.3125 12.75 C-8.35439453 11.87730469 -8.39628906 11.00460937 -8.43945312 10.10546875 C-8.56274914 3.6447578 -8.56274914 3.6447578 -5.66796875 0.328125 C-3 -1 -3 -1 0 0 Z " fill="#474246" transform="translate(488,282)"/>
<path d="M0 0 C0.66 0.33 1.32 0.66 2 1 C1.67 7.93 1.34 14.86 1 22 C0.34 22 -0.32 22 -1 22 C-1.9880871 14.22882846 -2.03232625 7.59183029 0 0 Z " fill="#709F79" transform="translate(948,186)"/>
<path d="M0 0 C0.99 0 1.98 0 3 0 C3 9.57 3 19.14 3 29 C1.04591248 25.09182496 0.77418244 24.10340805 1.0234375 20.015625 C1.075 19.08105469 1.1265625 18.14648438 1.1796875 17.18359375 C1.24414062 16.21550781 1.30859375 15.24742187 1.375 14.25 C1.43171875 13.26644531 1.4884375 12.28289062 1.546875 11.26953125 C1.68807552 8.845589 1.83945795 6.42272541 2 4 C1.34 4 0.68 4 0 4 C0 2.68 0 1.36 0 0 Z " fill="#908189" transform="translate(249,187)"/>
<path d="M0 0 C1.32 0.66 2.64 1.32 4 2 C3.39009109 5.55780196 2.4216319 8.6828589 1 12 C0.34 12 -0.32 12 -1 12 C-2.11658501 7.31034294 -1.80619523 4.46236469 0 0 Z " fill="#B7B0AE" transform="translate(483,153)"/>
<path d="M0 0 C0.66 0.33 1.32 0.66 2 1 C1.62750065 7.20832254 0.01263337 9.57581449 -4 14 C-4 14.66 -4 15.32 -4 16 C-4.66 16 -5.32 16 -6 16 C-5.37183502 12.05050296 -4.1354471 8.80107972 -2.4375 5.1875 C-1.98246094 4.21167969 -1.52742187 3.23585937 -1.05859375 2.23046875 C-0.70925781 1.49441406 -0.35992188 0.75835937 0 0 Z M1 4 C1.99 4.495 1.99 4.495 3 5 C2.01 5.495 2.01 5.495 1 6 C1 5.34 1 4.68 1 4 Z " fill="#887D7D" transform="translate(844,207)"/>
<path d="M0 0 C2.90408342 3.87211123 3.85079464 6.40317854 5 11 C3.68 10.67 2.36 10.34 1 10 C1 12.64 1 15.28 1 18 C0.67 18 0.34 18 0 18 C0 12.06 0 6.12 0 0 Z " fill="#8E8B90" transform="translate(351,188)"/>
<path d="M0 0 C2.375 0.25 2.375 0.25 5 1 C6.375 2.8125 6.375 2.8125 7 5 C6.625 7.25 6.625 7.25 6 9 C5.01 9 4.02 9 3 9 C2.01 6.03 1.02 3.06 0 0 Z " fill="#464546" transform="translate(616,293)"/>
<path d="M0 0 C1.32 0.33 2.64 0.66 4 1 C5 4 5 4 4 7 C2.02 7.99 2.02 7.99 0 9 C0 6.03 0 3.06 0 0 Z " fill="#8B817E" transform="translate(352,198)"/>
<path d="M0 0 C2.5 1.25 2.5 1.25 5 3 C5 4.32 5 5.64 5 7 C3.35 7 1.7 7 0 7 C-0.38133299 5.0085944 -0.71325582 3.00720923 -1 1 C-0.67 0.67 -0.34 0.34 0 0 Z " fill="#B9B0AF" transform="translate(1155,152)"/>
<path d="M0 0 C0.66 0 1.32 0 2 0 C2.66 1.98 3.32 3.96 4 6 C1.69 6 -0.62 6 -3 6 C-2.42655063 3.13275314 -2.1385485 2.1385485 0 0 Z " fill="#AAA09B" transform="translate(340,165)"/>
<path d="M0 0 C2.24606427 1.77444972 2.95081002 2.58352485 3.29296875 5.48046875 C3.25816406 6.37378906 3.22335937 7.26710938 3.1875 8.1875 C3.16042969 9.08855469 3.13335938 9.98960937 3.10546875 10.91796875 C3.07066406 11.60503906 3.03585937 12.29210937 3 13 C2.67 13 2.34 13 2 13 C1.67 10.69 1.34 8.38 1 6 C0.01 6 -0.98 6 -2 6 C-1.125 1.125 -1.125 1.125 0 0 Z " fill="#5B5858" transform="translate(1187,393)"/>
<path d="M0 0 C0.33 0 0.66 0 1 0 C1 2.97 1 5.94 1 9 C-0.98 9 -2.96 9 -5 9 C-4.01 8.67 -3.02 8.34 -2 8 C-1.7834375 6.576875 -1.7834375 6.576875 -1.5625 5.125 C-1 2 -1 2 0 0 Z " fill="#BCC0D5" transform="translate(533,303)"/>
<path d="M0 0 C0.99 0.66 1.98 1.32 3 2 C3 3.66666667 3 5.33333333 3 7 C1.68 7.33 0.36 7.66 -1 8 C-1.93065133 5.39417629 -2.14917407 4.35801776 -1.0625 1.75 C-0.711875 1.1725 -0.36125 0.595 0 0 Z " fill="#69605F" transform="translate(500,240)"/>
<path d="M0 0 C0.66 0.33 1.32 0.66 2 1 C0.68 3.97 -0.64 6.94 -2 10 C-2.99 9.34 -3.98 8.68 -5 8 C-3.62845496 5.04590299 -2.01136276 2.55991624 0 0 Z " fill="#7E7472" transform="translate(550,223)"/>
<path d="M0 0 C1 3 1 3 0.25 5.125 C-1 7 -1 7 -4 8 C-4.33 6.35 -4.66 4.7 -5 3 C-4.360625 2.690625 -3.72125 2.38125 -3.0625 2.0625 C-1.06389179 1.1654837 -1.06389179 1.1654837 0 0 Z " fill="#3C3B3C" transform="translate(423,300)"/>
<path d="M0 0 C0.66 0.33 1.32 0.66 2 1 C1.01 3.31 0.02 5.62 -1 8 C-2.32 6.68 -3.64 5.36 -5 4 C-4.34 3.67 -3.68 3.34 -3 3 C-2.67 2.34 -2.34 1.68 -2 1 C-1.67 1.33 -1.34 1.66 -1 2 C-0.67 1.34 -0.34 0.68 0 0 Z " fill="#8A7E7D" transform="translate(886,207)"/>
<path d="M0 0 C0.99 0 1.98 0 3 0 C3.99 2.97 4.98 5.94 6 9 C5.01 9.33 4.02 9.66 3 10 C3 7.69 3 5.38 3 3 C2.01 2.67 1.02 2.34 0 2 C0 1.34 0 0.68 0 0 Z " fill="#908683" transform="translate(618,198)"/>
<path d="M0 0 C0.99 0.99 1.98 1.98 3 3 C2.01 3.495 2.01 3.495 1 4 C1 4.99 1 5.98 1 7 C-1.5 9.1875 -1.5 9.1875 -4 11 C-2.7874262 7.27566618 -1.49140021 3.62197194 0 0 Z " fill="#797271" transform="translate(834,229)"/>
<path d="M0 0 C0.99 0 1.98 0 3 0 C2.814375 0.9075 2.62875 1.815 2.4375 2.75 C2.04265379 5.68314324 2.05308428 7.2644657 3 10 C2.34 10 1.68 10 1 10 C0 3.375 0 3.375 0 0 Z " fill="#625957" transform="translate(332,250)"/>
<path d="M0 0 C0.33 0.66 0.66 1.32 1 2 C1.66 2.33 2.32 2.66 3 3 C2.25 5.4375 2.25 5.4375 1 8 C-0.32 8.33 -1.64 8.66 -3 9 C-2.01 6.03 -1.02 3.06 0 0 Z " fill="#938987" transform="translate(521,192)"/>
<path d="M0 0 C1.98 0.99 1.98 0.99 4 2 C3.67 2.99 3.34 3.98 3 5 C3.99 5.33 4.98 5.66 6 6 C6 7.32 6 8.64 6 10 C5.34 10 4.68 10 4 10 C3.32845067 8.71086513 2.66291141 7.41859796 2 6.125 C1.62875 5.40570313 1.2575 4.68640625 0.875 3.9453125 C0 2 0 2 0 0 Z " fill="#C4C0BF" transform="translate(281,139)"/>
<path d="M0 0 C1.98 0.495 1.98 0.495 4 1 C3.01 1.33 2.02 1.66 1 2 C0.34 2.66 -0.32 3.32 -1 4 C-0.67 2.68 -0.34 1.36 0 0 Z M-2 4 C-1.34 4.33 -0.68 4.66 0 5 C-0.3125 6.9375 -0.3125 6.9375 -1 9 C-1.99 9.33 -2.98 9.66 -4 10 C-3.34 8.02 -2.68 6.04 -2 4 Z " fill="#C6C2C0" transform="translate(547,135)"/>
<path d="M0 0 C0.66 0 1.32 0 2 0 C3.0326802 2.78823655 3.04509293 3.8677274 2.0625 6.75 C1.711875 7.4925 1.36125 8.235 1 9 C0.87625 8.401875 0.7525 7.80375 0.625 7.1875 C0.04524015 4.73768652 0.04524015 4.73768652 -2 2 C-1.34 1.34 -0.68 0.68 0 0 Z " fill="#4A4847" transform="translate(156,289)"/>
<path d="M0 0 C0.66 0 1.32 0 2 0 C1.01 2.97 0.02 5.94 -1 9 C-1.33 9 -1.66 9 -2 9 C-2.125 5.625 -2.125 5.625 -2 2 C-1.34 1.34 -0.68 0.68 0 0 Z " fill="#918987" transform="translate(467,197)"/>
<path d="M0 0 C0.66 0 1.32 0 2 0 C2.66 1.98 3.32 3.96 4 6 C2.35 5.67 0.7 5.34 -1 5 C-0.67 3.35 -0.34 1.7 0 0 Z " fill="#4F4B4B" transform="translate(986,282)"/>
<path d="M0 0 C0.66 0 1.32 0 2 0 C2.66 2.31 3.32 4.62 4 7 C3.34 7.66 2.68 8.32 2 9 C0.14223235 5.86501708 -0.20140476 3.62528568 0 0 Z " fill="#807674" transform="translate(363,218)"/>
<path d="M0 0 C0.99 0.33 1.98 0.66 3 1 C2.67 2.98 2.34 4.96 2 7 C1.34 7 0.68 7 0 7 C-0.38133299 5.0085944 -0.71325582 3.00720923 -1 1 C-0.67 0.67 -0.34 0.34 0 0 Z " fill="#B2A9A8" transform="translate(482,158)"/>
<path d="M0 0 C1.65 0 3.3 0 5 0 C4.67 2.31 4.34 4.62 4 7 C1.49962266 4.82575883 0.56371414 3.26954202 0 0 Z " fill="#7E7572" transform="translate(315,217)"/>
<path d="M0 0 C0.99 1.32 1.98 2.64 3 4 C2.67 4.66 2.34 5.32 2 6 C0.68 6 -0.64 6 -2 6 C-1.34 4.02 -0.68 2.04 0 0 Z " fill="#9A8C8B" transform="translate(614,185)"/>
</svg>
